<svg width="124" height="100" viewBox="0 0 124 100" fill="none" xmlns="http://www.w3.org/2000/svg">
<path d="M17.1808 1.7666C17.1808 1.7666 17.6975 1.91192 17.7338 2.01148C17.7701 2.11105 26.4554 1.49481 39.184 7.26034C39.184 7.26034 31.8227 4.10511 24.4614 3.34355C24.4614 3.34355 39.6926 8.0219 48.2864 16.8337C48.2864 16.8337 48.8852 17.4728 49.5646 17.4594C49.5646 17.4594 50.5711 17.7527 52.3243 17.5468C52.3243 17.5468 54.9951 17.4015 59.6977 18.1873C59.6977 18.1873 59.7596 18.2788 59.769 17.5724C59.769 17.5724 60.3328 17.6975 60.0247 19.257C60.0247 19.257 60.2359 19.3848 60.5938 18.3205L62.0402 18.529L62.2259 18.0083C62.2259 18.0083 62.7776 18.116 62.3618 19.5718C62.3618 19.5718 62.7924 19.3848 63.04 18.6649L64.8631 18.9502L64.9452 18.56C64.9452 18.56 65.3529 18.6999 65.0582 20.0333C65.0582 20.0333 65.5076 19.775 65.6879 19.082L68.313 19.5355L68.4853 19.0915C68.4853 19.0915 68.8889 19.7844 68.3951 20.8097C68.3951 20.8097 68.8122 20.7007 69.2024 19.7077L72.7115 20.3562L72.7357 19.7952C72.7357 19.7952 73.3641 20.4235 72.9658 22.5185C72.9658 22.5185 73.4556 21.9386 73.6184 20.5325L78.1393 21.5174L78.2362 20.9066C78.2362 20.9066 78.8067 21.2658 78.1945 23.4698C78.1945 23.4698 78.8471 22.7445 79.0341 21.7475C79.0341 21.7475 79.2279 21.6991 79.3301 21.9709C79.3301 21.9709 80.7712 22.0368 82.2674 22.6181L82.3064 22.47L82.3939 22.5037C82.3939 22.5037 82.5567 23.6272 82.1517 24.5529C82.1517 24.5529 82.5984 24.3174 83.0397 22.8602C83.0397 22.8602 84.7202 23.3312 85.977 23.9245L86.164 23.4778C86.164 23.4778 86.6349 24.2515 86.164 25.7558C86.164 25.7558 86.4721 25.5809 86.8892 24.4264C86.8892 24.4264 89.0232 25.4786 88.2374 26.5416C88.2374 26.5416 89.5426 25.9132 90.7091 26.5712L90.8154 26.5389C90.8154 26.5389 91.4586 26.0034 91.8178 26.1083C91.8178 26.1083 91.1061 26.3667 90.9971 26.5981C90.9971 26.5981 91.2231 27.2507 91.1868 27.3866C91.1868 27.3866 90.4548 26.2388 89.2048 26.3465C89.2048 26.3465 88.3827 26.4434 88.1352 27.1013L88.01 27.1161C88.01 27.1161 88.2388 27.5978 88.2267 27.6933C88.2146 27.7902 87.3319 26.1891 85.6998 26.3694C85.6998 26.3694 84.7512 26.3519 84.1282 27.2278L84.5211 27.8144L84.4242 27.8346C84.4242 27.8346 82.5836 26.1258 81.0604 26.2711C81.0604 26.2711 79.9369 26.2079 78.9937 27.5225C78.9937 27.5225 78.5632 27.8265 78.4542 27.9934L77.589 28.0755C77.589 28.0755 77.994 28.7159 77.9456 28.8424C77.8971 28.9689 76.6458 26.7636 74.162 26.921C74.162 26.921 73.2376 26.96 71.9042 27.9127C71.9042 27.9127 70.6623 28.8007 70.0824 29.1088C70.0824 29.1088 70.9166 29.943 71.1427 30.052C71.1427 30.052 71.3324 30.3332 69.0854 28.9823C69.0854 28.9823 67.3079 27.622 65.9126 28.4751C65.9126 28.4751 63.0938 29.6632 60.8535 31.2226C60.8535 31.2226 55.2333 31.703 51.8601 33.6526C51.8601 33.6526 53.4007 33.9971 53.546 34.1787C53.546 34.1787 51.6879 33.8706 50.5724 34.0159C45.4501 34.6819 41.7674 37.2896 40.0438 38.5947C36.9585 40.9292 32.0864 43.787 24.2891 45.9251C24.1129 46.0677 23.7375 46.4081 23.7509 46.84C23.7671 47.3742 24.3672 47.7361 24.6659 47.9164C26.3895 48.9565 31.3679 49.6643 32.3568 49.8002C32.3568 49.8002 32.6677 51.513 32.9583 52.0943C32.9583 52.0943 33.0121 50.59 33.1036 50.4447C33.1036 50.4447 33.5301 51.9045 34.7801 52.6109C34.7801 52.6109 33.8288 51.5776 33.8827 50.1083C33.8827 50.1083 36.2131 50.3989 38.2798 50.2078C38.2798 50.2078 40.0653 50.8873 42.6581 51.287C42.6581 51.287 47.0189 48.7116 56.7376 51.9947C56.7376 51.9947 59.5295 52.8558 60.871 51.4686C60.871 51.4686 62.7386 49.5741 63.2095 50.372C63.2095 50.372 63.0588 50.5684 63.1247 50.8349C63.1247 50.8349 63.1664 51.6933 64.8954 51.6866C64.8954 51.6866 66.5329 51.7404 67.5488 51.5722C67.5488 51.5722 77.3818 59.3385 88.0141 56.2748C88.0141 56.2748 84.0919 56.2452 80.5384 53.9968C80.5384 53.9968 83.8268 55.5199 87.1018 55.411C87.1018 55.411 80.5384 52.7522 78.991 48.2071C78.991 48.2071 78.3412 46.2762 77.8514 45.4958C77.8514 45.4958 77.4558 45.438 77.0266 45.6196C77.0266 45.6196 76.7548 45.7892 76.0834 45.8188C76.0834 45.8188 76.1197 46.6342 76.4574 47.0997C76.4574 47.0997 76.0228 47.0997 75.4295 45.9399L74.7648 45.952C74.7648 45.952 75.116 47.2571 75.9313 48.5394C75.9313 48.5394 74.6679 47.4751 74.0032 45.9399C74.0032 45.9399 72.7505 45.9668 71.0646 45.3182C71.0646 45.3182 72.0616 45.8618 72.7505 45.9668C72.7505 45.9668 69.4823 46.248 67.7197 47.3944C67.7197 47.3944 70.299 53.791 82.8648 56.673C82.8648 56.673 71.3633 55.2643 66.9877 48.1815L66.9769 48.3416C66.9769 48.3416 67.7614 50.037 68.7288 50.9802C68.7288 50.9802 67.351 50.3088 66.4441 47.7765C66.4441 47.7765 66.5746 49.1435 67.4438 50.5039C67.4438 50.5039 65.8507 50.8954 64.1352 50.5927C64.1352 50.5927 68.8499 43.1641 65.1322 38.07C65.1322 38.07 64.7515 37.408 64.216 36.8186C63.6804 36.2293 62.2582 34.4384 62.2582 34.4384L63.7356 37.8883C63.7356 37.8883 65.8386 43.1762 63.1072 46.5131C63.1072 46.5131 61.7173 48.5798 61.4509 49.1597C61.4509 49.1597 60.9881 50.0181 60.6719 50.2805C60.3543 50.5429 60.1283 52.1817 55.2777 50.5617C55.2777 50.5617 51.6973 49.414 48.9766 49.3656C48.9766 49.3656 47.1992 48.6282 42.9931 48.495C42.9931 48.495 42.3217 49.0843 39.7572 49.6373L39.2862 49.5014C39.2862 49.5014 42.0701 48.8583 43.8287 47.389C41.7687 47.9608 38.7817 48.5502 35.1622 48.4546C31.6464 48.3618 28.767 47.6567 26.7662 47.0015C28.7791 46.3785 30.8431 45.7663 32.9556 45.1716C35.9265 44.3347 38.8315 43.5758 41.6651 42.8856C41.6651 42.8856 41.3328 40.2564 42.9407 39.3926C42.9407 39.3926 41.762 40.8067 42.8142 41.9437C43.8664 43.0793 45.6855 42.7954 46.0542 40.8673C46.0542 40.8673 46.182 40.8202 46.1645 41.4956C46.1645 41.4956 49.8257 41.5683 52.1709 40.36C52.1709 40.36 53.6994 37.9098 52.2732 36.1176C52.2732 36.1176 54.3749 37.6892 54.5027 38.9526C54.5027 38.9526 59.7731 37.3878 63.231 38.257C63.231 38.257 62.6874 35.6346 61.3998 33.3916C61.3998 33.3916 65.3704 35.9481 67.1384 39.7922C67.1384 39.7922 69.3868 39.9012 71.3364 39.7021C71.3364 39.7021 71.4911 37.708 71.2638 36.4109C71.2638 36.4109 72.7505 38.0525 72.6416 40.9251C72.6416 40.9251 72.7923 40.7462 72.8595 39.6281L77.0777 39.3442C77.0777 39.3442 77.2526 38.2799 77.2957 36.5455C77.2957 36.5455 78.6439 37.6152 78.5524 41.1687C78.5524 41.1687 78.8067 40.6789 78.8699 39.1921L82.8137 38.7656C82.8137 38.7656 82.7867 36.9155 82.9132 36.2629C82.9132 36.2629 84.3368 38.0484 84.0287 40.9319C84.0287 40.9319 84.3004 40.6601 84.4041 38.557L88.6895 37.8856C88.6895 37.8856 88.5536 36.1809 88.672 35.4193C88.672 35.4193 90.5759 36.8603 90.3405 39.5258C90.3405 39.5258 90.6069 39.5164 90.5826 37.5398L94.5842 36.5791C94.5842 36.5791 94.2815 35.5821 94.4752 34.542C94.4752 34.542 96.0522 35.5337 95.8288 37.6784C95.8288 37.6784 96.1006 37.5694 96.1437 36.0894C96.1437 36.0894 98.9841 35.134 99.3352 34.8326C99.3352 34.8326 99.0392 33.6297 99.0688 33.2369C99.0688 33.2369 100.585 34.1195 100.272 36.2831C100.272 36.2831 100.737 35.7274 100.574 34.2097C100.574 34.2097 101.651 33.6782 102.69 32.7888C102.69 32.7888 102.599 31.6828 102.758 31.2791C102.758 31.2791 103.757 31.9277 103.536 33.8585C103.536 33.8585 104.164 33.1037 103.887 31.4715C103.887 31.4715 104.117 31.3572 104.341 30.7463C104.341 30.7463 104.787 30.9401 104.661 32.2627C104.661 32.2627 104.988 31.9358 105.071 31.3989C105.071 31.3989 105.525 32.0461 104.123 33.841C104.123 33.841 104.032 39.293 101.179 40.9843C101.179 40.9843 95.6781 43.5354 94.3124 44.0306C92.9467 44.5257 91.4653 45.0639 91.4653 45.0639C91.4653 45.0639 86.3523 47.1307 79.4983 47.5666L79.7822 48.5515C79.7822 48.5515 85.693 48.2003 91.2298 45.9049C91.2298 45.9049 98.0287 43.1789 101.492 41.3301C101.492 41.3301 102.725 40.6829 103.294 39.5473C103.294 39.5473 104.04 38.4467 104.312 37.5681C104.584 36.6895 104.865 36.0544 105.091 34.2231C105.091 34.2231 106.043 32.6368 106.161 31.7662C106.161 31.7662 106.363 31.0988 105.227 29.2972C105.227 29.2972 105.518 22.6732 93.1338 18.3581C93.1338 18.3581 92.8122 17.7823 92.1677 17.5831L90.8491 17.6558L88.8631 17.1351C88.8631 17.1351 87.9199 16.3735 86.9955 16.3372C86.0711 16.3009 85.802 16.4004 85.802 16.4004L84.2184 16.1946C84.2184 16.1946 83.2752 15.7775 82.6952 15.2029C82.1153 14.6284 80.9367 15.0092 80.9367 15.0092L80.0486 15.4626L79.7217 15.4801C79.7217 15.4801 78.5618 14.296 77.4491 14.3378C77.4491 14.3378 76.7064 14.362 76.0834 14.701C76.0834 14.701 75.3918 14.8625 75.1012 14.5369C74.8105 14.2099 71.14 7.65996 63.3064 4.68637C63.3064 4.68637 68.2202 7.65996 71.4481 11.858C71.4481 11.858 67.7076 7.63036 62.0618 5.06177C62.0618 5.06177 61.2666 6.04669 63.3885 8.78481C63.3885 8.78481 65.7001 9.41048 67.0509 11.2229C67.0509 11.2229 65.7821 10.1895 64.1312 9.79933C64.1312 9.79933 64.551 10.4882 64.594 11.0507C64.594 11.0507 65.1982 11.5768 65.3139 11.866C65.3139 11.866 65.4108 12.084 64.594 11.5875C64.594 11.5875 64.3949 14.2045 57.9943 14.1144C57.9943 14.1144 53.1706 14.3687 48.9107 11.1233C45.411 8.82248 42.2504 7.21863 39.8177 6.12338C33.1588 3.12557 27.7162 2.02494 26.2401 1.74238C22.5763 1.04271 19.4507 0.815323 17.1956 0.748047C17.1848 1.08712 17.1835 1.42753 17.1808 1.7666Z" fill="white"/>
<path d="M19.8554 2.97266C19.8554 2.97266 23.012 3.05473 23.9888 3.28078C23.9888 3.28078 37.8167 8.65073 45.4807 19.2157C45.4807 19.2157 45.8911 19.6382 46.6164 19.8199C46.6164 19.8199 44.4285 21.6928 43.0144 23.5429C43.0144 23.5429 41.3702 25.4643 40.0529 26.3712C40.0529 26.3712 40.4606 26.3173 41.9474 25.066C41.9474 25.066 46.9312 20.2423 47.7762 20.0136L48.8001 19.9531L49.3491 19.8764C49.3491 19.8764 51.5719 19.0233 53.8202 18.878C53.8202 18.878 55.6878 18.8 56.1951 18.9507C56.1951 18.9507 52.9739 19.1202 51.8248 19.8454C51.8248 19.8454 54.6894 19.3866 57.5661 20.3042C57.5661 20.3042 65.8155 22.2203 70.3674 24.9759C70.3674 24.9759 70.954 25.4051 72.1381 25.8518C72.1381 25.8518 73.5468 26.4748 73.8119 26.686C73.8119 26.686 72.5067 26.8192 72.2645 27.013C72.2645 27.013 69.8709 25.8827 69.2062 25.6715C69.2062 25.6715 63.6936 30.362 56.7319 30.7239C56.7319 30.7239 55.6838 30.8087 54.1754 30.7481C54.1754 30.7481 58.7381 27.8835 59.1135 25.1871C59.1135 25.1871 59.536 23.337 57.2284 21.2461C57.2284 21.2461 56.9983 21.0766 55.0648 20.8115C53.1313 20.5464 50.5439 20.981 49.4688 21.7547C48.3924 22.5284 49.0638 21.857 45.147 24.6503C41.2302 27.4422 40.4633 27.4126 39.3506 27.5458C39.3506 27.5458 37.8396 27.6669 38.5648 25.6365C39.29 23.6061 41.0674 17.8877 34.5027 12.1585C34.5027 12.1585 36.7376 12.1545 37.5261 12.394C37.5261 12.394 36.1792 11.623 33.6362 11.4561C33.6362 11.4561 32.7427 10.6407 32.1628 10.2963C32.1628 10.2963 33.4303 10.1483 35.0543 10.3367C35.0543 10.3367 33.8945 9.76616 31.2196 9.59259C31.2237 9.59125 25.3317 5.50222 19.8554 2.97266Z" fill="white"/>
<path d="M79.1191 45.6912L79.255 46.7071C79.255 46.7071 93.9534 44.565 102.85 38.4053C102.851 38.4053 95.6286 43.6878 79.1191 45.6912Z" fill="white"/>
<path d="M58.705 42.8789L55.9884 41.9343C55.9386 42.1684 55.9063 42.4053 55.8956 42.6407L58.705 42.8789Z" fill="white"/>
<path d="M56.3531 40.8477L58.9742 42.5848L56.8133 40.0889C56.629 40.327 56.4756 40.5813 56.3531 40.8477Z" fill="white"/>
<path d="M59.0575 43.8149L56.7122 45.6731C56.8508 45.8763 57.0029 46.0687 57.1684 46.2463L59.0575 43.8149Z" fill="white"/>
<path d="M60.4514 43.1725L63.1546 43.6986C63.2178 43.4847 63.2743 43.2653 63.3227 43.042L60.4514 43.1725Z" fill="white"/>
<path d="M60.3289 43.3713L62.8665 44.5339C62.9513 44.328 63.0333 44.1087 63.1087 43.8799L60.3289 43.3713Z" fill="white"/>
<path d="M56.6032 45.5042L58.8717 43.7012L56.244 44.8274C56.3449 45.0628 56.4646 45.2889 56.6032 45.5042Z" fill="white"/>
<path d="M59.5906 44.0134L58.9313 47.4674C59.1048 47.5333 59.2798 47.5817 59.452 47.614L59.5906 44.0134Z" fill="white"/>
<path d="M61.9502 46.2953L60.0732 43.7537L61.5681 46.8255C61.7054 46.664 61.8318 46.4851 61.9502 46.2953Z" fill="white"/>
<path d="M60.2028 43.7012L62.0475 46.1715C62.1578 45.9885 62.2627 45.7961 62.3663 45.601L60.2028 43.7012Z" fill="white"/>
<path d="M60.3398 43.5115L62.4523 45.4342C62.4738 45.3912 62.4954 45.3495 62.5169 45.3064C62.6097 45.1221 62.7053 44.9135 62.7994 44.6861L60.3398 43.5115Z" fill="white"/>
<path d="M55.8928 42.8738C55.8874 43.1698 55.9049 43.4631 55.9453 43.743L58.8031 43.155L55.8928 42.8738Z" fill="white"/>
<path d="M58.8049 47.4181L59.4817 43.8713L58.124 47.0468C58.3447 47.1961 58.5734 47.3212 58.8049 47.4181Z" fill="white"/>
<path d="M63.3577 42.9029C63.3981 42.6997 63.4304 42.4965 63.4533 42.292L60.6331 43.028L63.3577 42.9029Z" fill="white"/>
<path d="M58.8031 42.7122L56.2641 41.0356C56.1672 41.2617 56.0892 41.4945 56.0327 41.7313L58.8031 42.7122Z" fill="white"/>
<path d="M58.744 43.5115L55.9789 43.9959C55.987 44.0335 55.9924 44.0712 56.0005 44.1075C56.0408 44.2825 56.096 44.4547 56.1606 44.6229L58.744 43.5115Z" fill="white"/>
<path d="M59.1368 42.4068L57.5451 39.3875C57.3258 39.5529 57.128 39.7359 56.9571 39.9364L59.1368 42.4068Z" fill="white"/>
<path d="M59.266 43.8486L59.1852 43.9656L59.2485 43.8149L57.2975 46.3983C57.4993 46.6123 57.7173 46.8033 57.9447 46.9675L59.266 43.8486Z" fill="white"/>
<path d="M59.4192 42.3584L58.468 38.8896C58.2325 38.9811 57.9943 39.0982 57.7616 39.2489C57.7468 39.2583 57.732 39.2704 57.7172 39.2799L59.4192 42.3584Z" fill="white"/>
<path d="M59.73 43.8945L59.5861 47.6378C59.8094 47.6674 60.0287 47.6674 60.2427 47.6324L59.73 43.8945Z" fill="white"/>
<path d="M59.9967 43.9031L61.0247 47.3247C61.1875 47.2157 61.3355 47.0852 61.4727 46.9359L59.9967 43.9031Z" fill="white"/>
<path d="M59.8767 43.9697L60.3759 47.6067C60.3907 47.604 60.4041 47.6013 60.4189 47.5972C60.5966 47.5528 60.758 47.4842 60.9074 47.3981L59.8767 43.9697Z" fill="white"/>
<path d="M60.0977 42.4306L62.381 39.1664C62.1334 38.9968 61.8751 38.8852 61.6396 38.8125L60.0977 42.4306Z" fill="white"/>
<path d="M60.1809 42.6106L63.1451 40.0124C63.0442 39.8213 62.9204 39.6424 62.7656 39.4809C62.6849 39.3975 62.6001 39.3248 62.514 39.2576L60.1809 42.6106Z" fill="white"/>
<path d="M60.3909 42.6113L63.4465 40.9294C63.4048 40.659 63.3308 40.4006 63.2191 40.1611L60.3909 42.6113Z" fill="white"/>
<path d="M59.5861 42.3275L59.4017 38.6421C59.1501 38.6798 58.8864 38.7403 58.6213 38.8332L59.5861 42.3275Z" fill="white"/>
<path d="M63.4711 42.0921C63.502 41.7611 63.5047 41.4328 63.467 41.1179L60.2432 42.8967L63.4711 42.0921Z" fill="white"/>
<path d="M59.7707 42.4065L60.4529 38.6C60.1973 38.5825 59.904 38.5839 59.5918 38.6242L59.7707 42.4065Z" fill="white"/>
<path d="M59.9147 42.4061L61.4782 38.7705C61.4714 38.7691 61.4647 38.7664 61.4593 38.7651C61.3571 38.7355 61.0449 38.6507 60.6143 38.6104L59.9147 42.4061Z" fill="white"/>
<path d="M53.5838 43.7286C53.6484 43.6829 53.8112 43.6963 53.9243 43.7542C54.0117 43.7986 54.0655 43.8685 54.0951 43.9156C56.6879 47.2229 58.2245 48.4258 59.1812 48.8039C59.2821 48.8443 59.4449 48.9021 59.4409 48.9573C59.4045 49.4269 49.3831 48.9775 49.3509 47.6763C49.3145 46.2555 56.1686 49.0609 55.0195 47.6763C53.8139 46.2245 53.2851 43.9372 53.5838 43.7286Z" fill="white"/>
<path d="M0.00274658 69.6031C0.00274658 68.4729 0.1817 67.4194 0.540952 66.4425C0.900205 65.4657 1.4115 64.618 2.07619 63.8995C2.74087 63.1823 3.53472 62.6172 4.45775 62.2041C5.38212 61.7924 6.41681 61.5852 7.56185 61.5852C8.70688 61.5852 9.74158 61.7911 10.6659 62.2041C11.5903 62.6159 12.3801 63.181 13.0367 63.8995C13.6934 64.618 14.2006 65.4643 14.5599 66.4425C14.9191 67.4194 15.0981 68.4729 15.0981 69.6031C15.0981 70.7334 14.9178 71.7869 14.5599 72.7638C14.2006 73.7406 13.6934 74.5883 13.0367 75.3068C12.3801 76.0253 11.5903 76.5891 10.6659 77.0021C9.74158 77.4139 8.70688 77.6211 7.56185 77.6211C6.41681 77.6211 5.38212 77.4152 4.45775 77.0021C3.53338 76.5904 2.73952 76.0253 2.07619 75.3068C1.4115 74.5896 0.900205 73.7419 0.540952 72.7638C0.1817 71.7869 0.00274658 70.7334 0.00274658 69.6031ZM11.9361 69.6031C11.9361 67.3736 11.554 65.6514 10.7911 64.4377C10.0268 63.224 8.95042 62.6172 7.56185 62.6172C6.17193 62.6172 5.09956 63.224 4.34338 64.4377C3.5872 65.6514 3.20911 67.3736 3.20911 69.6031C3.20911 71.8327 3.5872 73.5549 4.34338 74.7686C5.09956 75.9822 6.17193 76.5891 7.56185 76.5891C8.95176 76.5891 10.0282 75.9822 10.7911 74.7686C11.554 73.5536 11.9361 71.8327 11.9361 69.6031Z" fill="white"/>
<path d="M22.1968 77.5509C21.5712 77.5509 20.9482 77.4903 20.3306 77.3679C19.7117 77.2454 19.1587 77.0665 18.6702 76.8297C18.1818 76.5929 17.7849 76.3022 17.4794 75.9591C17.174 75.616 17.022 75.2299 17.022 74.802V72.1217H17.7095C17.9517 73.7094 18.4415 74.8397 19.1775 75.5124C19.9135 76.1852 20.9186 76.5202 22.1941 76.5202C23.0593 76.5202 23.7536 76.3332 24.277 75.9591C24.8004 75.5851 25.0628 75.0321 25.0628 74.2988C25.0628 73.6422 24.8529 73.0959 24.4331 72.6613C24.0133 72.2267 23.436 71.7867 22.7041 71.344L19.8866 69.6487C18.8478 69.0378 18.1145 68.4121 17.688 67.7703C17.2601 67.1285 17.0462 66.3885 17.0462 65.5489C17.0462 64.3433 17.5077 63.388 18.4321 62.6856C19.3564 61.9833 20.6037 61.6321 22.1766 61.6321C22.8023 61.6321 23.4253 61.694 24.0429 61.8151C24.6618 61.9375 25.2148 62.1165 25.7032 62.3533C26.1917 62.5901 26.5886 62.8807 26.894 63.2238C27.1994 63.5669 27.3515 63.9531 27.3515 64.381V67.0612H26.6639C26.4056 65.4735 25.9212 64.3433 25.2081 63.6719C24.495 63.0005 23.5625 62.6641 22.4094 62.6641C21.59 62.6641 20.9415 62.8632 20.4638 63.2602C19.9861 63.6571 19.7466 64.1993 19.7466 64.8869C19.7466 65.2071 19.8045 65.4937 19.9189 65.7453C20.0332 65.9969 20.1933 66.2297 20.4006 66.4436C20.6064 66.6576 20.8553 66.8635 21.1446 67.0626C21.4339 67.2617 21.7636 67.4676 22.1295 67.6815L24.9471 69.354C25.9858 69.9649 26.7447 70.565 27.2264 71.1516C27.7081 71.7396 27.9476 72.4541 27.9476 73.2937C27.9476 74.6069 27.4511 75.6456 26.4594 76.4085C25.4651 77.1688 24.0456 77.5509 22.1968 77.5509Z" fill="white"/>
<path d="M39.2395 62.0443C39.6364 62.0443 39.9607 62.0981 40.2123 62.2044C40.4639 62.3121 40.663 62.4493 40.8083 62.6162C40.9536 62.7843 41.0519 62.9794 41.1057 63.2001C41.1595 63.4221 41.1864 63.6468 41.1864 63.8756V65.8225H40.4989C40.4989 64.8457 40.2499 64.1433 39.7548 63.7154C39.2583 63.2876 38.5519 63.0736 37.6356 63.0736H33.9475V68.8001H39.9028V69.8308H33.9475V76.1305H37.8643C38.7039 76.1305 39.4184 75.9435 40.0064 75.5694C40.5944 75.1954 41.0869 74.5119 41.4838 73.5189L42.1027 73.7476L41.438 75.5573C41.2698 76.0457 41.0519 76.4359 40.7855 76.7252C40.5177 77.0159 40.071 77.1598 39.4453 77.1598H30.9699V65.0206C30.9699 64.333 30.8744 63.78 30.6833 63.3602C30.4923 62.9404 30.0536 62.7305 29.3661 62.7305H29.1373V62.043H39.2395V62.0443Z" fill="white"/>
<path d="M55.617 62.0449V63.0756H50.8297V77.1618H47.8521V63.0756H46.2253C45.4153 63.0756 44.7749 63.2774 44.3013 63.6824C43.8276 64.0874 43.5908 64.8019 43.5908 65.8245H42.9033V63.8775C42.9033 63.6488 42.9302 63.4227 42.984 63.2021C43.0378 62.9814 43.136 62.7863 43.2813 62.6181C43.4267 62.4499 43.6245 62.3127 43.8774 62.2064C44.129 62.1001 44.4533 62.0463 44.8502 62.0463H55.617V62.0449Z" fill="white"/>
<path d="M61.8008 70.2445H60.8845V77.1618H57.884V65.0225C57.884 64.335 57.7884 63.782 57.5974 63.3622C57.4063 62.9424 56.9677 62.7325 56.2801 62.7325H56.0514V62.0449H62.3726C62.7386 62.0449 63.1436 62.0597 63.5863 62.0907C64.0289 62.1216 64.4797 62.1902 64.9372 62.2965C65.3946 62.4028 65.8414 62.5522 66.2773 62.7432C66.7119 62.9343 67.0981 63.1859 67.4344 63.4994C67.7708 63.8129 68.0413 64.195 68.2471 64.6445C68.453 65.0952 68.5566 65.6334 68.5566 66.2591C68.5566 66.8551 68.4463 67.3705 68.2243 67.8051C68.0022 68.2397 67.713 68.607 67.3537 68.9044C66.9945 69.2017 66.5935 69.4426 66.1508 69.6256C65.7081 69.8085 65.2722 69.9539 64.8457 70.0602L67.2515 74.0684C67.5407 74.5569 67.8206 74.9578 68.087 75.2713C68.3534 75.5848 68.6104 75.8324 68.854 76.0154C69.0975 76.1984 69.3235 76.333 69.5294 76.4164C69.7353 76.4998 69.9223 76.5576 70.0905 76.5886V77.1618C69.968 77.2223 69.7501 77.2762 69.4379 77.3219C69.1244 77.3677 68.823 77.3905 68.5337 77.3905C68.1368 77.3905 67.7506 77.3367 67.3766 77.2304C67.0025 77.1241 66.6352 76.9411 66.2773 76.6801C65.9181 76.4204 65.5588 76.0773 65.2009 75.6494C64.8416 75.2216 64.4716 74.6955 64.0895 74.0684L61.8008 70.2445ZM62.3726 62.9612C62.1896 62.9612 62.0066 62.9693 61.8223 62.9841C61.6393 62.9989 61.4792 63.0231 61.342 63.0527C61.1738 63.0837 61.0217 63.1065 60.8845 63.1213V69.3282H62.2583C62.6242 69.3282 62.9916 69.2744 63.3575 69.1681C63.7235 69.0618 64.0559 68.8855 64.3532 68.6406C64.6506 68.3971 64.8914 68.0674 65.0744 67.6557C65.2574 67.244 65.3489 66.7394 65.3489 66.1434C65.3489 65.5473 65.2574 65.0481 65.0744 64.6431C64.8914 64.2381 64.6546 63.9098 64.364 63.6582C64.0733 63.4066 63.7531 63.2263 63.4019 63.12C63.0521 63.015 62.709 62.9612 62.3726 62.9612Z" fill="white"/>
<path d="M85.4845 62.0443C85.8814 62.0443 86.2057 62.0981 86.4587 62.2044C86.7103 62.3121 86.9094 62.4493 87.0547 62.6162C87.2001 62.7843 87.2983 62.9794 87.3521 63.2001C87.4059 63.4221 87.4328 63.6468 87.4328 63.8756V65.8225H86.7453C86.7453 64.8295 86.4963 64.1245 86.0012 63.7033C85.5047 63.2835 84.7983 63.0736 83.882 63.0736H80.6985V68.9145H85.7375V69.9452H80.6985V77.1598H77.7209V65.0206C77.7209 64.333 77.6254 63.78 77.4343 63.3602C77.2432 62.9404 76.8046 62.7305 76.117 62.7305H75.8883V62.043H85.4845V62.0443Z" fill="white"/>
<path d="M89.6986 62.0449H92.6762V74.1842C92.6762 74.8717 92.7718 75.4247 92.9628 75.8445C93.1539 76.2643 93.5925 76.4742 94.2801 76.4742H94.5088V77.1618H91.7599C91.363 77.1618 91.0307 77.116 90.7629 77.0245C90.4952 76.933 90.2826 76.7729 90.1211 76.5428C89.961 76.3141 89.8493 76.0087 89.7888 75.6265C89.7269 75.2458 89.6973 74.7641 89.6973 74.1842V62.0449H89.6986Z" fill="white"/>
<path d="M101.106 77.5509C100.479 77.5509 99.8574 77.4903 99.2384 77.3679C98.6195 77.2454 98.0665 77.0665 97.5781 76.8297C97.0896 76.5929 96.6927 76.3022 96.3873 75.9591C96.0819 75.616 95.9285 75.2299 95.9285 74.802V72.1217H96.616C96.8582 73.7094 97.348 74.8397 98.084 75.5124C98.82 76.1852 99.8251 76.5202 101.101 76.5202C101.966 76.5202 102.66 76.3332 103.183 75.9591C103.707 75.5851 103.969 75.0321 103.969 74.2988C103.969 73.6422 103.759 73.0959 103.34 72.6613C102.92 72.2267 102.343 71.7867 101.611 71.344L98.7931 69.6487C97.7543 69.0378 97.021 68.4121 96.5945 67.7703C96.1666 67.1285 95.9527 66.3885 95.9527 65.5489C95.9527 64.3433 96.4142 63.388 97.3386 62.6856C98.2629 61.9833 99.5102 61.6321 101.083 61.6321C101.709 61.6321 102.332 61.694 102.949 61.8151C103.568 61.9375 104.121 62.1165 104.61 62.3533C105.098 62.5901 105.495 62.8807 105.8 63.2238C106.106 63.5669 106.259 63.9531 106.259 64.381V67.0612H105.572C105.313 65.4735 104.829 64.3433 104.116 63.6719C103.403 63.0005 102.47 62.6641 101.317 62.6641C100.498 62.6641 99.8493 62.8632 99.3716 63.2602C98.894 63.6571 98.6545 64.1993 98.6545 64.8869C98.6545 65.2071 98.7123 65.4937 98.8267 65.7453C98.9411 65.9969 99.1012 66.2297 99.307 66.4436C99.5129 66.6576 99.7618 66.8635 100.051 67.0626C100.34 67.2617 100.67 67.4676 101.036 67.6815L103.854 69.354C104.892 69.9649 105.651 70.565 106.133 71.1516C106.615 71.7396 106.854 72.4541 106.854 73.2937C106.854 74.6069 106.358 75.6456 105.365 76.4085C104.373 77.1688 102.953 77.5509 101.106 77.5509Z" fill="white"/>
<path d="M119.041 62.0449H122.018V74.1842C122.018 74.8717 122.114 75.4247 122.305 75.8445C122.496 76.2643 122.935 76.4742 123.622 76.4742H123.851V77.1618H121.102C120.705 77.1618 120.373 77.116 120.105 77.0245C119.837 76.933 119.623 76.7729 119.463 76.5429C119.303 76.3141 119.191 76.0087 119.131 75.6266C119.069 75.2458 119.039 74.7641 119.039 74.1842V69.8328H112.855V77.1631H109.878V65.0239C109.878 64.3363 109.782 63.7833 109.591 63.3635C109.4 62.9437 108.961 62.7338 108.274 62.7338H108.045V62.0463H110.794C111.191 62.0463 111.523 62.0961 111.791 62.1956C112.057 62.2952 112.273 62.4593 112.433 62.6881C112.593 62.9168 112.703 63.2222 112.765 63.6044C112.826 63.9865 112.857 64.4601 112.857 65.0239V68.8034H119.041V62.0449Z" fill="white"/>
<path d="M44.3142 85.9233C44.3142 86.0686 44.3868 86.1857 44.5322 86.2731C44.6775 86.3606 44.8537 86.4319 45.0596 86.4844C45.2655 86.5368 45.4713 86.5974 45.6772 86.6647C45.8831 86.7319 46.0593 86.8477 46.2046 87.0118C46.35 87.1746 46.4226 87.3845 46.4226 87.6415C46.4226 87.9833 46.2908 88.2564 46.027 88.4623C45.7633 88.6681 45.4256 88.7718 45.0139 88.7718C44.6465 88.7718 44.333 88.691 44.072 88.5309C43.811 88.3708 43.6253 88.1568 43.515 87.8904L44.0801 87.5662C44.1406 87.7465 44.2536 87.8904 44.4191 87.9954C44.5846 88.1003 44.7838 88.1541 45.0139 88.1541C45.2291 88.1541 45.4081 88.1124 45.5494 88.0304C45.6893 87.947 45.7606 87.8178 45.7606 87.6429C45.7606 87.4975 45.688 87.3805 45.5426 87.293C45.3973 87.2056 45.2211 87.1343 45.0152 87.0818C44.8093 87.0293 44.6035 86.9674 44.3976 86.8974C44.1917 86.8275 44.0155 86.7118 43.8702 86.5503C43.7249 86.3902 43.6522 86.1843 43.6522 85.9327C43.6522 85.6058 43.7787 85.338 44.033 85.1267C44.2859 84.9155 44.6048 84.8105 44.9856 84.8105C45.2924 84.8105 45.5642 84.8792 45.8037 85.0178C46.0418 85.1563 46.2221 85.3488 46.3419 85.5936L45.7916 85.9031C45.6557 85.5815 45.3866 85.4214 44.9856 85.4214C44.7999 85.4214 44.6412 85.4658 44.5106 85.5533C44.3788 85.638 44.3142 85.7632 44.3142 85.9233Z" fill="white"/>
<path d="M47.494 84.2214C47.3689 84.2214 47.2626 84.1783 47.1778 84.0936C47.0917 84.0088 47.05 83.9052 47.05 83.7841C47.05 83.663 47.093 83.5594 47.1778 83.472C47.2626 83.3845 47.3689 83.3401 47.494 83.3401C47.6151 83.3401 47.7174 83.3845 47.8035 83.472C47.8882 83.5594 47.9313 83.6644 47.9313 83.7841C47.9313 83.9052 47.8882 84.0075 47.8035 84.0936C47.7174 84.1783 47.6151 84.2214 47.494 84.2214ZM47.163 88.6737V84.9063H47.8183V88.6737H47.163Z" fill="white"/>
<path d="M50.6961 84.8071C51.1375 84.8071 51.4927 84.9471 51.7591 85.2256C52.0255 85.5041 52.1587 85.8822 52.1587 86.3599V88.6728H51.5035V86.3975C51.5035 86.0908 51.42 85.8539 51.2545 85.6857C51.089 85.5176 50.8603 85.4328 50.5683 85.4328C50.2414 85.4328 49.9776 85.5351 49.7772 85.7382C49.5767 85.9414 49.4758 86.2549 49.4758 86.676V88.6728H48.8205V84.9053H49.4758V85.4476C49.7422 85.0211 50.1485 84.8071 50.6961 84.8071Z" fill="white"/>
<path d="M54.8402 88.771C54.2724 88.771 53.8001 88.5813 53.4234 88.2019C53.0467 87.8224 52.8583 87.3515 52.8583 86.7891C52.8583 86.2266 53.0467 85.7557 53.4234 85.3763C53.8001 84.9968 54.2724 84.8071 54.8402 84.8071C55.2116 84.8071 55.5453 84.8959 55.8426 85.0749C56.1386 85.2538 56.3593 85.4933 56.506 85.7947L55.9557 86.1109C55.8601 85.9105 55.7135 85.749 55.5143 85.6292C55.3152 85.5081 55.0905 85.4489 54.8402 85.4489C54.4635 85.4489 54.1486 85.5768 53.8943 85.8338C53.64 86.0894 53.5135 86.4096 53.5135 86.7904C53.5135 87.1672 53.64 87.4834 53.8943 87.7404C54.1473 87.996 54.4635 88.1252 54.8402 88.1252C55.0918 88.1252 55.3179 88.066 55.5184 87.9476C55.7188 87.8292 55.8722 87.6704 55.9785 87.4686L56.5356 87.7928C56.3741 88.0888 56.144 88.327 55.8426 88.5046C55.5412 88.6822 55.2062 88.771 54.8402 88.771Z" fill="white"/>
<path d="M57.5908 87.0904C57.6554 87.4267 57.8101 87.6878 58.0536 87.8734C58.2972 88.0591 58.5972 88.152 58.9538 88.152C59.4516 88.152 59.8122 87.969 60.0383 87.6016L60.5953 87.9178C60.228 88.4856 59.6763 88.7696 58.9376 88.7696C58.3402 88.7696 57.8532 88.5825 57.4791 88.2085C57.1051 87.8344 56.918 87.3608 56.918 86.7876C56.918 86.2198 57.101 85.7475 57.4683 85.3708C57.8357 84.994 58.3093 84.8057 58.8919 84.8057C59.4449 84.8057 59.8957 85.0008 60.2441 85.3896C60.5926 85.7785 60.7675 86.2481 60.7675 86.7943C60.7675 86.8899 60.7595 86.9881 60.7447 87.0877H57.5908V87.0904ZM58.8946 85.4259C58.5434 85.4259 58.2514 85.5255 58.02 85.7233C57.7886 85.9211 57.646 86.1862 57.5908 86.5185H60.1069C60.0517 86.1619 59.9105 85.8901 59.6844 85.7045C59.4597 85.5188 59.196 85.4259 58.8946 85.4259Z" fill="white"/>
<path d="M63.1814 88.6733V88.1001L65.0422 86.2016C65.5401 85.7038 65.7877 85.2772 65.7877 84.9207C65.7877 84.6246 65.6975 84.3932 65.5159 84.2277C65.3356 84.0622 65.1136 83.9788 64.8525 83.9788C64.3547 83.9788 63.9941 84.2143 63.768 84.6865L63.1801 84.3394C63.3456 83.9976 63.5756 83.7393 63.869 83.563C64.1623 83.3868 64.4879 83.2993 64.8445 83.2993C65.2858 83.2993 65.6706 83.4446 65.9976 83.7366C66.3245 84.0286 66.4873 84.4201 66.4873 84.9126C66.4873 85.4454 66.1738 86.0253 65.5455 86.6537L64.1973 87.9952H66.5856V88.6733H63.1814Z" fill="white"/>
<path d="M70.6787 88.0262C70.3221 88.5241 69.8216 88.7716 69.1798 88.7716C68.5367 88.7716 68.0375 88.5227 67.6809 88.0262C67.3243 87.5284 67.1454 86.8664 67.1454 86.0375C67.1454 85.2087 67.323 84.5454 67.6809 84.0489C68.0375 83.551 68.5367 83.3035 69.1798 83.3035C69.823 83.3035 70.3221 83.5524 70.6787 84.0489C71.0353 84.5467 71.2142 85.2087 71.2142 86.0375C71.2142 86.865 71.0353 87.5284 70.6787 88.0262ZM68.1922 87.5513C68.4236 87.9078 68.7519 88.0868 69.1798 88.0868C69.6063 88.0868 69.9373 87.9092 70.1701 87.5513C70.4042 87.1947 70.5199 86.6901 70.5199 86.0362C70.5199 85.3823 70.4029 84.8764 70.1701 84.5185C69.936 84.1592 69.6063 83.9803 69.1798 83.9803C68.7533 83.9803 68.4236 84.1592 68.1922 84.5158C67.9608 84.8723 67.8451 85.3796 67.8451 86.0375C67.8451 86.6901 67.9608 87.1947 68.1922 87.5513Z" fill="white"/>
<path d="M71.7253 88.6733V88.1001L73.5862 86.2016C74.084 85.7038 74.3316 85.2772 74.3316 84.9207C74.3316 84.6246 74.2415 84.3932 74.0598 84.2277C73.8795 84.0622 73.6575 83.9788 73.3965 83.9788C72.8986 83.9788 72.538 84.2143 72.312 84.6865L71.724 84.3394C71.8895 83.9976 72.1196 83.7393 72.4129 83.563C72.7062 83.3868 73.0318 83.2993 73.3884 83.2993C73.8297 83.2993 74.2145 83.4446 74.5415 83.7366C74.8685 84.0286 75.0313 84.4201 75.0313 84.9126C75.0313 85.4454 74.7178 86.0253 74.0894 86.6537L72.7412 87.9952H75.1295V88.6733H71.7253Z" fill="white"/>
<path d="M79.2224 88.0262C78.8658 88.5241 78.3653 88.7716 77.7235 88.7716C77.0804 88.7716 76.5812 88.5227 76.2246 88.0262C75.868 87.5284 75.6891 86.8664 75.6891 86.0375C75.6891 85.2087 75.8667 84.5454 76.2246 84.0489C76.5812 83.551 77.0804 83.3035 77.7235 83.3035C78.3667 83.3035 78.8658 83.5524 79.2224 84.0489C79.579 84.5467 79.7579 85.2087 79.7579 86.0375C79.7579 86.865 79.579 87.5284 79.2224 88.0262ZM76.7359 87.5513C76.9673 87.9078 77.2956 88.0868 77.7235 88.0868C78.15 88.0868 78.481 87.9092 78.7138 87.5513C78.9479 87.1947 79.0636 86.6901 79.0636 86.0362C79.0636 85.3823 78.9466 84.8764 78.7138 84.5185C78.4797 84.1592 78.15 83.9803 77.7235 83.9803C77.297 83.9803 76.9673 84.1592 76.7359 84.5158C76.5045 84.8723 76.3888 85.3796 76.3888 86.0375C76.3901 86.6901 76.5058 87.1947 76.7359 87.5513Z" fill="white"/>
<path d="M42.5815 94.9797C42.8223 95.0954 43.0147 95.2609 43.1573 95.4775C43.3 95.6941 43.3726 95.9417 43.3726 96.2229C43.3726 96.6454 43.2246 96.9993 42.9286 97.2859C42.6326 97.5725 42.2706 97.7151 41.8441 97.7151H39.5675V92.4407H41.6773C42.089 92.4407 42.4388 92.5793 42.7241 92.8551C43.0107 93.1309 43.1533 93.4727 43.1533 93.8804C43.1533 94.3473 42.9622 94.7146 42.5815 94.9797ZM41.6773 93.096H40.2685V94.7079H41.6773C41.8979 94.7079 42.0836 94.6298 42.2343 94.4738C42.385 94.3177 42.4604 94.1266 42.4604 93.9006C42.4604 93.6799 42.3837 93.4902 42.2303 93.3314C42.0769 93.1753 41.8926 93.096 41.6773 93.096ZM41.8428 97.0598C42.0782 97.0598 42.2774 96.9764 42.4375 96.8109C42.5976 96.6454 42.6783 96.4422 42.6783 96.2001C42.6783 95.9646 42.5963 95.7628 42.4334 95.5973C42.2706 95.4318 42.0728 95.3483 41.8414 95.3483H40.2672V97.0585H41.8428V97.0598Z" fill="white"/>
<path d="M46.6502 93.9473H47.3512L45.8147 97.9488C45.6532 98.3754 45.4285 98.701 45.1406 98.9243C44.8513 99.1477 44.5189 99.2472 44.1422 99.2217V98.6108C44.6037 98.6458 44.9428 98.3902 45.1594 97.8425L45.2267 97.6999L43.5838 93.9473H44.2848L45.5658 96.9007L46.6502 93.9473Z" fill="white"/>
<path d="M53.3253 97.7151L52.8961 96.5324H50.5226L50.0934 97.7151H49.348L51.3151 92.4407H52.1063L54.0734 97.7151H53.3253ZM50.7634 95.8771H52.6552L51.7053 93.2776L50.7634 95.8771Z" fill="white"/>
<path d="M55.1563 94.9648C55.1563 95.1101 55.2289 95.2272 55.3743 95.3146C55.5196 95.4021 55.6958 95.4734 55.9017 95.5259C56.1076 95.5783 56.3134 95.6389 56.5193 95.7062C56.7252 95.7734 56.9014 95.8892 57.0467 96.0533C57.1921 96.2161 57.2647 96.426 57.2647 96.683C57.2647 97.0248 57.1329 97.2979 56.8691 97.5038C56.6054 97.7096 56.2677 97.8132 55.856 97.8132C55.4886 97.8132 55.1751 97.7325 54.9141 97.5724C54.6531 97.4123 54.4674 97.1983 54.3571 96.9319L54.9222 96.6077C54.9827 96.788 55.0957 96.9319 55.2612 97.0369C55.4267 97.1418 55.6259 97.1957 55.856 97.1957C56.0712 97.1957 56.2502 97.1539 56.3915 97.0719C56.5314 96.9884 56.6027 96.8593 56.6027 96.6844C56.6027 96.539 56.5301 96.422 56.3847 96.3345C56.2394 96.2471 56.0632 96.1758 55.8573 96.1233C55.6514 96.0708 55.4456 96.0089 55.2397 95.9389C55.0338 95.869 54.8576 95.7533 54.7123 95.5918C54.567 95.4317 54.4943 95.2258 54.4943 94.9742C54.4943 94.6472 54.6208 94.3795 54.8751 94.1682C55.128 93.957 55.4469 93.8521 55.8277 93.8521C56.1345 93.8521 56.4063 93.9207 56.6458 94.0592C56.8839 94.1978 57.0642 94.3902 57.184 94.6351L56.6337 94.9446C56.4978 94.623 56.2287 94.4629 55.8277 94.4629C55.642 94.4629 55.4833 94.5073 55.3527 94.5948C55.2222 94.6795 55.1563 94.8047 55.1563 94.9648Z" fill="white"/>
<path d="M59.9412 94.581H58.9388V96.6235C58.9388 96.8091 58.9751 96.941 59.0478 97.019C59.1204 97.0971 59.2321 97.1374 59.3828 97.1401C59.5335 97.1428 59.7192 97.1388 59.9398 97.1294V97.7174C59.3666 97.7927 58.9482 97.7456 58.6818 97.5774C58.4154 97.4092 58.2822 97.0917 58.2822 96.6248V94.5823H57.5367V93.9499H58.2822V93.0915L58.9374 92.895V93.9499H59.9398V94.581H59.9412Z" fill="white"/>
<path d="M61.3956 94.5804C61.6109 94.1135 62.0038 93.8794 62.5716 93.8794V94.5656C62.25 94.5508 61.9742 94.6356 61.7428 94.8213C61.5113 95.0069 61.3956 95.3056 61.3956 95.7174V97.7141H60.7404V93.9467H61.3956V94.5804Z" fill="white"/>
<path d="M66.1279 93.9475H66.7831V97.7149H66.1279V97.0664C65.8009 97.5642 65.326 97.8118 64.7043 97.8118C64.1769 97.8118 63.7275 97.6194 63.3561 97.2359C62.9848 96.8511 62.7991 96.3828 62.7991 95.8312C62.7991 95.2782 62.9848 94.8099 63.3561 94.4265C63.7275 94.0416 64.1769 93.8506 64.7043 93.8506C65.3273 93.8506 65.8023 94.0995 66.1279 94.596V93.9475ZM64.7864 97.1807C65.1685 97.1807 65.4874 97.0516 65.7431 96.7932C65.9987 96.5349 66.1279 96.2147 66.1279 95.8325C66.1279 95.4504 66.0001 95.1302 65.7431 94.8718C65.4874 94.6135 65.1672 94.4843 64.7864 94.4843C64.4097 94.4843 64.0935 94.6135 63.8365 94.8718C63.5795 95.1302 63.4517 95.4504 63.4517 95.8325C63.4517 96.2147 63.5795 96.5349 63.8365 96.7932C64.0935 97.0516 64.4097 97.1807 64.7864 97.1807Z" fill="white"/>
<path d="M70.9651 97.7151H70.1511L68.4329 95.9296V97.7151H67.7776V92.4407H68.4329V95.6134L70.0609 93.9477H70.9046L69.1043 95.7708L70.9651 97.7151Z" fill="white"/>
<path d="M73.4517 93.8494C73.893 93.8494 74.2482 93.9894 74.5147 94.2679C74.7811 94.5464 74.9143 94.9245 74.9143 95.4022V97.7151H74.259V95.4398C74.259 95.1331 74.1756 94.8962 74.0101 94.728C73.8446 94.5599 73.6158 94.4751 73.3239 94.4751C72.9969 94.4751 72.7332 94.5774 72.5327 94.7805C72.3322 94.9837 72.2313 95.2972 72.2313 95.7184V97.7151H71.576V92.4407H72.2313V94.4899C72.4964 94.0634 72.9041 93.8494 73.4517 93.8494Z" fill="white"/>
<path d="M78.9439 93.9475H79.5992V97.7149H78.9439V97.0664C78.617 97.5642 78.142 97.8118 77.5204 97.8118C76.9929 97.8118 76.5435 97.6194 76.1722 97.2359C75.8008 96.8511 75.6151 96.3828 75.6151 95.8312C75.6151 95.2782 75.8008 94.8099 76.1722 94.4265C76.5435 94.0416 76.9929 93.8506 77.5204 93.8506C78.1433 93.8506 78.6183 94.0995 78.9439 94.596V93.9475ZM77.6024 97.1807C77.9846 97.1807 78.3035 97.0516 78.5591 96.7932C78.8147 96.5349 78.9439 96.2147 78.9439 95.8325C78.9439 95.4504 78.8161 95.1302 78.5591 94.8718C78.3035 94.6135 77.9832 94.4843 77.6024 94.4843C77.2257 94.4843 76.9095 94.6135 76.6525 94.8718C76.3955 95.1302 76.2677 95.4504 76.2677 95.8325C76.2677 96.2147 76.3955 96.5349 76.6525 96.7932C76.9095 97.0516 77.2257 97.1807 77.6024 97.1807Z" fill="white"/>
<path d="M82.4707 93.8489C82.9121 93.8489 83.2673 93.9888 83.5337 94.2673C83.8001 94.5459 83.9333 94.9239 83.9333 95.4016V97.7145H83.2781V95.4393C83.2781 95.1325 83.1946 94.8957 83.0291 94.7275C82.8636 94.5593 82.6349 94.4745 82.3429 94.4745C82.016 94.4745 81.7522 94.5768 81.5518 94.78C81.3513 94.9831 81.2504 95.2967 81.2504 95.7178V97.7145H80.5951V93.9471H81.2504V94.4893C81.5168 94.0628 81.9231 93.8489 82.4707 93.8489Z" fill="white"/>
<path d="M39.8797 83.8523V85.2248C38.5746 85.4979 37.7175 86.0845 36.8254 86.6941C35.4853 87.613 34.098 88.5616 31.3357 88.5616C28.572 88.5616 27.1848 87.613 25.8447 86.6941C24.6189 85.8558 23.4617 85.0633 21.1138 85.0633C18.7672 85.0633 17.6101 85.8558 16.3843 86.6941C15.0429 87.6117 13.657 88.5616 10.8933 88.5616C8.1296 88.5616 6.74372 87.613 5.40359 86.6941C4.17782 85.8558 3.02068 85.0633 0.672758 85.0633C0.301395 85.0633 0 84.7619 0 84.3905C0 84.0192 0.301395 83.7178 0.672758 83.7178C3.43645 83.7178 4.82233 84.6664 6.1638 85.584C7.38957 86.4236 8.54671 87.2161 10.8933 87.2161C13.2399 87.2161 14.3984 86.4236 15.6241 85.584C16.9643 84.6664 18.3501 83.7178 21.1138 83.7178C23.8775 83.7178 25.2634 84.6664 26.6049 85.584C27.8306 86.4236 28.9878 87.2161 31.3357 87.2161C33.6823 87.2161 34.8394 86.4236 36.0652 85.584C37.1039 84.8736 38.1696 84.1443 39.8797 83.8523Z" fill="white"/>
<path d="M40.5674 84.5333C40.5674 84.8791 40.2983 85.1684 39.97 85.2101C39.5771 85.2599 39.1923 84.9423 39.1923 84.5333C39.1923 84.1512 39.5274 83.8323 39.9162 83.8511C40.2755 83.87 40.5674 84.1727 40.5674 84.5333Z" fill="white"/>
<path d="M124 84.3903C124 84.7616 123.7 85.063 123.327 85.063C120.981 85.063 119.822 85.8556 118.596 86.6938C117.256 87.6128 115.869 88.5614 113.105 88.5614C110.342 88.5614 108.956 87.6128 107.614 86.6938C106.389 85.8556 105.231 85.063 102.883 85.063C100.537 85.063 99.3784 85.8556 98.1526 86.6938C96.8125 87.6128 95.4266 88.5614 92.6629 88.5614C89.8992 88.5614 88.512 87.6128 87.1719 86.6938C86.2798 86.0843 85.424 85.499 84.1202 85.2245V83.8534C85.829 84.1454 86.8933 84.8733 87.9321 85.5838C89.1578 86.4234 90.315 87.2159 92.6629 87.2159C95.0095 87.2159 96.168 86.4234 97.3937 85.5838C98.7339 84.6661 100.12 83.7175 102.883 83.7175C105.647 83.7175 107.034 84.6661 108.374 85.5838C109.6 86.4234 110.759 87.2159 113.105 87.2159C115.453 87.2159 116.61 86.4234 117.837 85.5838C119.178 84.6661 120.564 83.7175 123.327 83.7175C123.7 83.7175 124 84.0189 124 84.3903Z" fill="white"/>
<path d="M84.0919 85.234C84.4716 85.234 84.7794 84.9262 84.7794 84.5465C84.7794 84.1667 84.4716 83.8589 84.0919 83.8589C83.7121 83.8589 83.4043 84.1667 83.4043 84.5465C83.4043 84.9262 83.7121 85.234 84.0919 85.234Z" fill="white"/>
</svg>
