<svg width="140" height="140" viewBox="0 0 140 140" fill="none" xmlns="http://www.w3.org/2000/svg">
<path d="M34.5785 31.805C34.5785 31.805 34.9868 31.9198 35.0155 31.9985C35.0443 32.0772 41.9084 31.5902 51.9681 36.1468C51.9681 36.1468 46.1503 33.6532 40.3325 33.0513C40.3325 33.0513 52.3701 36.7487 59.162 43.7128C59.162 43.7128 59.6352 44.218 60.1722 44.2073C60.1722 44.2073 60.9676 44.4391 62.3532 44.2764C62.3532 44.2764 64.464 44.1616 68.1806 44.7826C68.1806 44.7826 68.2295 44.8549 68.2369 44.2966C68.2369 44.2966 68.6825 44.3955 68.439 45.628C68.439 45.628 68.6059 45.729 68.8888 44.8879L70.0319 45.0527L70.1787 44.6412C70.1787 44.6412 70.6147 44.7263 70.2861 45.8768C70.2861 45.8768 70.6264 45.729 70.822 45.1601L72.2629 45.3856L72.3278 45.0772C72.3278 45.0772 72.65 45.1878 72.4171 46.2416C72.4171 46.2416 72.7723 46.0374 72.9148 45.4898L74.9895 45.8481L75.1256 45.4972C75.1256 45.4972 75.4446 46.0449 75.0543 46.8552C75.0543 46.8552 75.384 46.769 75.6924 45.9842L78.4657 46.4968L78.4848 46.0534C78.4848 46.0534 78.9814 46.55 78.6667 48.2057C78.6667 48.2057 79.0538 47.7474 79.1824 46.6361L82.7554 47.4145L82.832 46.9317C82.832 46.9317 83.2829 47.2157 82.799 48.9575C82.799 48.9575 83.3148 48.3843 83.4626 47.5963C83.4626 47.5963 83.6157 47.5581 83.6965 47.7729C83.6965 47.7729 84.8354 47.825 86.0179 48.2844L86.0487 48.1674L86.1179 48.194C86.1179 48.194 86.2465 49.0819 85.9265 49.8135C85.9265 49.8135 86.2795 49.6274 86.6283 48.4758C86.6283 48.4758 87.9565 48.848 88.9497 49.3169L89.0975 48.9639C89.0975 48.9639 89.4697 49.5753 89.0975 50.7642C89.0975 50.7642 89.341 50.626 89.6707 49.7136C89.6707 49.7136 91.3572 50.5451 90.7362 51.3852C90.7362 51.3852 91.7677 50.8886 92.6896 51.4086L92.7736 51.3831C92.7736 51.3831 93.2819 50.9599 93.5659 51.0428C93.5659 51.0428 93.0033 51.247 92.9172 51.4299C92.9172 51.4299 93.0958 51.9456 93.0671 52.053C93.0671 52.053 92.4886 51.1459 91.5007 51.231C91.5007 51.231 90.851 51.3076 90.6553 51.8276L90.5565 51.8393C90.5565 51.8393 90.7372 52.22 90.7277 52.2955C90.7181 52.372 90.0205 51.1066 88.7306 51.2491C88.7306 51.2491 87.9809 51.2353 87.4886 51.9275L87.7991 52.3912L87.7225 52.4071C87.7225 52.4071 86.2678 51.0566 85.064 51.1715C85.064 51.1715 84.1761 51.1215 83.4307 52.1604C83.4307 52.1604 83.0904 52.4008 83.0043 52.5326L82.3205 52.5975C82.3205 52.5975 82.6406 53.1037 82.6023 53.2036C82.564 53.3036 81.5751 51.5607 79.612 51.6851C79.612 51.6851 78.8815 51.7159 77.8277 52.4688C77.8277 52.4688 76.8462 53.1706 76.3878 53.4142C76.3878 53.4142 77.0471 54.0735 77.2258 54.1596C77.2258 54.1596 77.3757 54.3818 75.5999 53.3142C75.5999 53.3142 74.1951 52.2391 73.0924 52.9133C73.0924 52.9133 70.8646 53.8523 69.094 55.0848C69.094 55.0848 64.6523 55.4644 61.9863 57.0052C61.9863 57.0052 63.2039 57.2775 63.3188 57.421C63.3188 57.421 61.8502 57.1775 60.9687 57.2923C56.9203 57.8187 54.0098 59.8796 52.6476 60.9111C50.2093 62.7561 46.3587 65.0147 40.1964 66.7044C40.0571 66.8171 39.7604 67.0862 39.771 67.4275C39.7838 67.8497 40.2581 68.1358 40.4941 68.2783C41.8563 69.1003 45.7909 69.6596 46.5725 69.767C46.5725 69.767 46.8181 71.1207 47.0478 71.5801C47.0478 71.5801 47.0903 70.3912 47.1627 70.2764C47.1627 70.2764 47.4998 71.4301 48.4876 71.9884C48.4876 71.9884 47.7358 71.1717 47.7784 70.0105C47.7784 70.0105 49.6202 70.2402 51.2535 70.0892C51.2535 70.0892 52.6646 70.6262 54.7138 70.942C54.7138 70.942 58.1602 68.9067 65.8411 71.5014C65.8411 71.5014 68.0477 72.182 69.1079 71.0856C69.1079 71.0856 70.5838 69.5883 70.956 70.2189C70.956 70.2189 70.8369 70.3742 70.889 70.5847C70.889 70.5847 70.922 71.2632 72.2885 71.2579C72.2885 71.2579 73.5826 71.3004 74.3855 71.1675C74.3855 71.1675 82.1567 77.3054 90.5597 74.884C90.5597 74.884 87.4599 74.8606 84.6515 73.0837C84.6515 73.0837 87.2504 74.2875 89.8387 74.2013C89.8387 74.2013 84.6515 72.1001 83.4286 68.5079C83.4286 68.5079 82.9149 66.982 82.5279 66.3652C82.5279 66.3652 82.2152 66.3195 81.876 66.463C81.876 66.463 81.6612 66.597 81.1306 66.6204C81.1306 66.6204 81.1593 67.2648 81.4262 67.6328C81.4262 67.6328 81.0827 67.6328 80.6138 66.7161L80.0884 66.7257C80.0884 66.7257 80.366 67.7572 81.0104 68.7706C81.0104 68.7706 80.0119 67.9295 79.4866 66.7161C79.4866 66.7161 78.4965 66.7374 77.1641 66.2248C77.1641 66.2248 77.9521 66.6544 78.4965 66.7374C78.4965 66.7374 75.9136 66.9596 74.5205 67.8657C74.5205 67.8657 76.559 72.921 86.4901 75.1988C86.4901 75.1988 77.4002 74.0854 73.942 68.4877L73.9335 68.6143C73.9335 68.6143 74.5535 69.9542 75.3181 70.6996C75.3181 70.6996 74.2292 70.169 73.5124 68.1677C73.5124 68.1677 73.6156 69.2481 74.3025 70.3232C74.3025 70.3232 73.0435 70.6326 71.6876 70.3933C71.6876 70.3933 75.4138 64.5223 72.4756 60.4963C72.4756 60.4963 72.1747 59.9732 71.7515 59.5074C71.3282 59.0416 70.2042 57.6263 70.2042 57.6263L71.3718 60.3528C71.3718 60.3528 73.0339 64.5319 70.8752 67.1691C70.8752 67.1691 69.7767 68.8025 69.5662 69.2608C69.5662 69.2608 69.2004 69.9393 68.9505 70.1466C68.6995 70.354 68.5209 71.6492 64.6873 70.3689C64.6873 70.3689 61.8577 69.4618 59.7075 69.4235C59.7075 69.4235 58.3027 68.8408 54.9786 68.7355C54.9786 68.7355 54.448 69.2013 52.4211 69.6383L52.0489 69.5309C52.0489 69.5309 54.2491 69.0226 55.639 67.8614C54.0109 68.3133 51.6502 68.7791 48.7897 68.7036C46.011 68.6302 43.7354 68.073 42.1541 67.5551C43.7449 67.0628 45.3762 66.5789 47.0457 66.1089C49.3937 65.4475 51.6895 64.8477 53.929 64.3022C53.929 64.3022 53.6664 62.2244 54.9371 61.5417C54.9371 61.5417 54.0056 62.6593 54.8372 63.5579C55.6687 64.4554 57.1064 64.231 57.3978 62.7071C57.3978 62.7071 57.4988 62.6699 57.485 63.2037C57.485 63.2037 60.3785 63.2612 62.232 62.3062C62.232 62.3062 63.44 60.3698 62.3128 58.9534C62.3128 58.9534 63.9738 60.1954 64.0748 61.1939C64.0748 61.1939 68.2401 59.9572 70.973 60.6442C70.973 60.6442 70.5434 58.5716 69.5258 56.7989C69.5258 56.7989 72.6638 58.8194 74.0611 61.8575C74.0611 61.8575 75.8381 61.9436 77.3789 61.7862C77.3789 61.7862 77.5012 60.2103 77.3215 59.1852C77.3215 59.1852 78.4965 60.4825 78.4104 62.7529C78.4104 62.7529 78.5295 62.6114 78.5827 61.7278L81.9164 61.5034C81.9164 61.5034 82.0546 60.6622 82.0887 59.2915C82.0887 59.2915 83.1542 60.1369 83.0819 62.9453C83.0819 62.9453 83.2829 62.5583 83.3328 61.3832L86.4496 61.0461C86.4496 61.0461 86.4284 59.584 86.5283 59.0682C86.5283 59.0682 87.6534 60.4793 87.4099 62.7582C87.4099 62.7582 87.6247 62.5434 87.7066 60.8813L91.0935 60.3507C91.0935 60.3507 90.9861 59.0033 91.0797 58.4015C91.0797 58.4015 92.5843 59.5404 92.3983 61.6469C92.3983 61.6469 92.6088 61.6395 92.5897 60.0774L95.7522 59.3181C95.7522 59.3181 95.5129 58.5301 95.6661 57.7081C95.6661 57.7081 96.9123 58.4919 96.7358 60.1869C96.7358 60.1869 96.9506 60.1008 96.9847 58.931C96.9847 58.931 99.2295 58.176 99.507 57.9378C99.507 57.9378 99.2731 56.9872 99.2965 56.6766C99.2965 56.6766 100.495 57.3742 100.247 59.0842C100.247 59.0842 100.615 58.645 100.486 57.4455C100.486 57.4455 101.337 57.0254 102.158 56.3225C102.158 56.3225 102.087 55.4484 102.212 55.1294C102.212 55.1294 103.001 55.642 102.827 57.1679C102.827 57.1679 103.324 56.5714 103.104 55.2815C103.104 55.2815 103.286 55.1911 103.463 54.7083C103.463 54.7083 103.816 54.8614 103.716 55.9068C103.716 55.9068 103.974 55.6483 104.04 55.2241C104.04 55.2241 104.399 55.7355 103.291 57.1541C103.291 57.1541 103.219 61.463 100.964 62.7997C100.964 62.7997 96.6167 64.8158 95.5374 65.2072C94.458 65.5985 93.2872 66.0239 93.2872 66.0239C93.2872 66.0239 89.2464 67.6572 83.8294 68.0018L84.0538 68.7802C84.0538 68.7802 88.7253 68.5026 93.1012 66.6885C93.1012 66.6885 98.4745 64.534 101.212 63.0729C101.212 63.0729 102.186 62.5615 102.636 61.664C102.636 61.664 103.226 60.7941 103.441 60.0997C103.655 59.4053 103.878 58.9034 104.056 57.4561C104.056 57.4561 104.808 56.2024 104.902 55.5144C104.902 55.5144 105.061 54.9869 104.164 53.563C104.164 53.563 104.393 48.328 94.6059 44.9177C94.6059 44.9177 94.3517 44.4625 93.8423 44.3052L92.8002 44.3626L91.2306 43.951C91.2306 43.951 90.4852 43.3492 89.7547 43.3205C89.0241 43.2917 88.8114 43.3704 88.8114 43.3704L87.5598 43.2077C87.5598 43.2077 86.8144 42.8781 86.3561 42.424C85.8977 41.9699 84.9662 42.2709 84.9662 42.2709L84.2644 42.6292L84.006 42.6431C84.006 42.6431 83.0893 41.7073 82.2099 41.7403C82.2099 41.7403 81.6229 41.7594 81.1306 42.0274C81.1306 42.0274 80.584 42.155 80.3543 41.8976C80.1246 41.6392 77.2237 36.4626 71.0326 34.1125C71.0326 34.1125 74.9161 36.4626 77.4672 39.7804C77.4672 39.7804 74.511 36.4392 70.049 34.4092C70.049 34.4092 69.4205 35.1876 71.0975 37.3516C71.0975 37.3516 72.9244 37.8461 73.992 39.2785C73.992 39.2785 72.9892 38.4618 71.6845 38.1534C71.6845 38.1534 72.0162 38.6979 72.0503 39.1424C72.0503 39.1424 72.5277 39.5582 72.6192 39.7868C72.6192 39.7868 72.6957 39.9591 72.0503 39.5667C72.0503 39.5667 71.8929 41.635 66.8343 41.5637C66.8343 41.5637 63.0221 41.7647 59.6554 39.1998C56.8895 37.3814 54.3916 36.1139 52.469 35.2482C47.2063 32.879 42.9048 32.0092 41.7383 31.7858C38.8427 31.2329 36.3724 31.0532 34.5902 31C34.5817 31.268 34.5806 31.537 34.5785 31.805Z" fill="#092328"/>
<path d="M36.6924 32.7585C36.6924 32.7585 39.1871 32.8234 39.9591 33.0021C39.9591 33.0021 50.8876 37.2461 56.9447 45.5958C56.9447 45.5958 57.269 45.9297 57.8422 46.0733C57.8422 46.0733 56.1131 47.5535 54.9955 49.0157C54.9955 49.0157 53.696 50.5342 52.6549 51.2509C52.6549 51.2509 52.9771 51.2084 54.1522 50.2194C54.1522 50.2194 58.091 46.4072 58.7588 46.2264L59.568 46.1785L60.0019 46.1179C60.0019 46.1179 61.7586 45.4437 63.5356 45.3289C63.5356 45.3289 65.0115 45.2672 65.4124 45.3863C65.4124 45.3863 62.8667 45.5203 61.9585 46.0935C61.9585 46.0935 64.2225 45.7309 66.496 46.4561C66.496 46.4561 73.0157 47.9704 76.6131 50.1482C76.6131 50.1482 77.0768 50.4874 78.0126 50.8404C78.0126 50.8404 79.1259 51.3328 79.3354 51.4998C79.3354 51.4998 78.3039 51.605 78.1125 51.7582C78.1125 51.7582 76.2207 50.8649 75.6954 50.698C75.6954 50.698 71.3387 54.4049 65.8367 54.691C65.8367 54.691 65.0084 54.758 63.8163 54.7101C63.8163 54.7101 67.4222 52.4462 67.7189 50.3151C67.7189 50.3151 68.0528 48.853 66.2291 47.2005C66.2291 47.2005 66.0473 47.0665 64.5192 46.857C62.9911 46.6475 60.9462 46.991 60.0965 47.6024C59.2458 48.2139 59.7765 47.6832 56.6809 49.8908C53.5854 52.0974 52.9793 52.074 52.0999 52.1793C52.0999 52.1793 50.9057 52.275 51.4788 50.6703C52.052 49.0657 53.4567 44.5462 48.2685 40.0183C48.2685 40.0183 50.0347 40.0151 50.6579 40.2044C50.6579 40.2044 49.5934 39.5951 47.5836 39.4632C47.5836 39.4632 46.8775 38.8188 46.4192 38.5466C46.4192 38.5466 47.4209 38.4296 48.7044 38.5785C48.7044 38.5785 47.7878 38.1276 45.6738 37.9904C45.677 37.9894 41.0204 34.7577 36.6924 32.7585Z" fill="#092328"/>
<path d="M83.5295 66.5192L83.6369 67.3221C83.6369 67.3221 95.2534 65.6292 102.285 60.761C102.286 60.761 96.5774 64.9359 83.5295 66.5192Z" fill="#092328"/>
<path d="M67.3961 64.2973L65.2492 63.5508C65.2098 63.7358 65.1843 63.923 65.1758 64.1091L67.3961 64.2973Z" fill="#092328"/>
<path d="M65.5371 62.6913L67.6086 64.0641L65.9008 62.0916C65.7551 62.2798 65.6339 62.4808 65.5371 62.6913Z" fill="#092328"/>
<path d="M67.6745 65.0364L65.821 66.5049C65.9306 66.6655 66.0507 66.8176 66.1815 66.9579L67.6745 65.0364Z" fill="#092328"/>
<path d="M68.7764 64.5294L70.9127 64.9452C70.9627 64.7761 71.0074 64.6028 71.0456 64.4263L68.7764 64.5294Z" fill="#092328"/>
<path d="M68.6791 64.686L70.6846 65.6048C70.7516 65.4421 70.8165 65.2688 70.876 65.088L68.6791 64.686Z" fill="#092328"/>
<path d="M65.7351 66.3715L67.528 64.9465L65.4512 65.8366C65.5309 66.0227 65.6256 66.2013 65.7351 66.3715Z" fill="#092328"/>
<path d="M68.0955 65.1941L67.5745 67.9238C67.7116 67.9759 67.8499 68.0142 67.986 68.0397L68.0955 65.1941Z" fill="#092328"/>
<path d="M69.961 66.9968L68.4775 64.988L69.659 67.4158C69.7674 67.2881 69.8674 67.1467 69.961 66.9968Z" fill="#092328"/>
<path d="M68.5793 64.9465L70.0373 66.8989C70.1245 66.7543 70.2074 66.6022 70.2893 66.448L68.5793 64.9465Z" fill="#092328"/>
<path d="M68.6877 64.7966L70.3573 66.3162C70.3743 66.2822 70.3913 66.2492 70.4083 66.2152C70.4817 66.0695 70.5572 65.9047 70.6316 65.725L68.6877 64.7966Z" fill="#092328"/>
<path d="M65.1735 64.2927C65.1692 64.5267 65.183 64.7585 65.2149 64.9797L67.4736 64.515L65.1735 64.2927Z" fill="#092328"/>
<path d="M67.4746 67.8846L68.0095 65.0815L66.9365 67.5911C67.1109 67.7092 67.2917 67.8081 67.4746 67.8846Z" fill="#092328"/>
<path d="M71.0733 64.3153C71.1052 64.1547 71.1307 63.9942 71.1488 63.8325L68.9199 64.4142L71.0733 64.3153Z" fill="#092328"/>
<path d="M67.4732 64.1651L65.4666 62.8401C65.39 63.0187 65.3284 63.2027 65.2837 63.3899L67.4732 64.1651Z" fill="#092328"/>
<path d="M67.4267 64.7966L65.2415 65.1795C65.2478 65.2092 65.2521 65.239 65.2585 65.2677C65.2904 65.406 65.334 65.5421 65.385 65.675L67.4267 64.7966Z" fill="#092328"/>
<path d="M67.7371 63.9234L66.4791 61.5371C66.3058 61.6679 66.1495 61.8125 66.0144 61.971L67.7371 63.9234Z" fill="#092328"/>
<path d="M67.8389 65.063L67.7751 65.1555L67.8251 65.0364L66.2832 67.0781C66.4427 67.2472 66.615 67.3982 66.7947 67.5279L67.8389 65.063Z" fill="#092328"/>
<path d="M67.9604 63.8852L67.2086 61.1438C67.0225 61.2161 66.8343 61.3086 66.6503 61.4277C66.6386 61.4352 66.6269 61.4447 66.6152 61.4522L67.9604 63.8852Z" fill="#092328"/>
<path d="M68.2059 65.1001L68.0922 68.0585C68.2687 68.0818 68.442 68.0818 68.6111 68.0542L68.2059 65.1001Z" fill="#092328"/>
<path d="M68.417 65.1062L69.2294 67.8104C69.3581 67.7243 69.4751 67.6211 69.5835 67.5031L68.417 65.1062Z" fill="#092328"/>
<path d="M68.3223 65.1597L68.7168 68.034C68.7285 68.0319 68.7391 68.0298 68.7508 68.0266C68.8912 67.9915 69.0188 67.9372 69.1368 67.8692L68.3223 65.1597Z" fill="#092328"/>
<path d="M68.4963 63.9422L70.3009 61.3624C70.1052 61.2284 69.9011 61.1402 69.715 61.0828L68.4963 63.9422Z" fill="#092328"/>
<path d="M68.5623 64.085L70.9049 62.0316C70.8251 61.8806 70.7273 61.7392 70.605 61.6116C70.5412 61.5457 70.4742 61.4882 70.4062 61.4351L68.5623 64.085Z" fill="#092328"/>
<path d="M68.7285 64.0851L71.1435 62.7559C71.1105 62.5421 71.052 62.338 70.9638 62.1487L68.7285 64.0851Z" fill="#092328"/>
<path d="M68.0923 63.8618L67.9466 60.9492C67.7477 60.979 67.5393 61.0269 67.3298 61.1002L68.0923 63.8618Z" fill="#092328"/>
<path d="M71.1624 63.6749C71.1869 63.4133 71.189 63.1539 71.1592 62.905L68.6113 64.3108L71.1624 63.6749Z" fill="#092328"/>
<path d="M68.238 63.9235L68.7771 60.9152C68.5751 60.9014 68.3433 60.9024 68.0966 60.9343L68.238 63.9235Z" fill="#092328"/>
<path d="M68.3521 63.9239L69.5877 61.0506C69.5824 61.0496 69.5771 61.0474 69.5728 61.0464C69.492 61.023 69.2453 60.956 68.905 60.9241L68.3521 63.9239Z" fill="#092328"/>
<path d="M63.3482 64.9682C63.3993 64.9321 63.5279 64.9427 63.6173 64.9884C63.6864 65.0235 63.7289 65.0788 63.7523 65.116C65.8015 67.7298 67.0159 68.6805 67.7719 68.9793C67.8517 69.0112 67.9804 69.057 67.9772 69.1006C67.9485 69.4717 60.0283 69.1165 60.0028 68.0882C59.9741 66.9653 65.391 69.1824 64.4829 68.0882C63.5301 66.9408 63.1122 65.133 63.3482 64.9682Z" fill="#092328"/>
<path d="M21.0022 85.4173C21.0022 84.5241 21.1436 83.6914 21.4276 82.9194C21.7115 82.1474 22.1156 81.4775 22.6409 80.9096C23.1662 80.3428 23.7936 79.8962 24.5231 79.5697C25.2536 79.2443 26.0714 79.0806 26.9763 79.0806C27.8813 79.0806 28.699 79.2433 29.4296 79.5697C30.1601 79.8951 30.7843 80.3418 31.3033 80.9096C31.8222 81.4775 32.2231 82.1463 32.507 82.9194C32.7909 83.6914 32.9324 84.5241 32.9324 85.4173C32.9324 86.3106 32.7899 87.1432 32.507 87.9152C32.2231 88.6872 31.8222 89.3572 31.3033 89.925C30.7843 90.4929 30.1601 90.9384 29.4296 91.2649C28.699 91.5903 27.8813 91.7541 26.9763 91.7541C26.0714 91.7541 25.2536 91.5914 24.5231 91.2649C23.7925 90.9395 23.1651 90.4929 22.6409 89.925C22.1156 89.3582 21.7115 88.6883 21.4276 87.9152C21.1436 87.1432 21.0022 86.3106 21.0022 85.4173ZM30.4334 85.4173C30.4334 83.6553 30.1314 82.2941 29.5285 81.335C28.9245 80.3758 28.0737 79.8962 26.9763 79.8962C25.8778 79.8962 25.0303 80.3758 24.4327 81.335C23.8351 82.2941 23.5363 83.6553 23.5363 85.4173C23.5363 87.1794 23.8351 88.5405 24.4327 89.4997C25.0303 90.4589 25.8778 90.9384 26.9763 90.9384C28.0748 90.9384 28.9255 90.4589 29.5285 89.4997C30.1314 88.5394 30.4334 87.1794 30.4334 85.4173Z" fill="#092328"/>
<path d="M38.5424 91.6999C38.048 91.6999 37.5556 91.652 37.0675 91.5553C36.5784 91.4585 36.1413 91.3171 35.7553 91.1299C35.3693 90.9427 35.0556 90.7131 34.8142 90.4419C34.5728 90.1707 34.4526 89.8655 34.4526 89.5274V87.4091H34.996C35.1874 88.6639 35.5745 89.5572 36.1562 90.0888C36.7379 90.6205 37.5322 90.8853 38.5403 90.8853C39.2241 90.8853 39.7728 90.7375 40.1864 90.4419C40.6001 90.1463 40.8075 89.7092 40.8075 89.1297C40.8075 88.6107 40.6416 88.179 40.3098 87.8355C39.978 87.492 39.5218 87.1443 38.9433 86.7945L36.7166 85.4546C35.8957 84.9718 35.3161 84.4773 34.979 83.9701C34.6409 83.4629 34.4718 82.878 34.4718 82.2144C34.4718 81.2616 34.8365 80.5066 35.5671 79.9515C36.2976 79.3964 37.2834 79.1189 38.5265 79.1189C39.021 79.1189 39.5133 79.1678 40.0014 79.2635C40.4906 79.3603 40.9276 79.5017 41.3136 79.6889C41.6996 79.876 42.0133 80.1057 42.2547 80.3769C42.4961 80.6481 42.6163 80.9533 42.6163 81.2914V83.4097H42.0729C41.8687 82.1549 41.4859 81.2616 40.9223 80.731C40.3587 80.2004 39.6218 79.9345 38.7105 79.9345C38.0628 79.9345 37.5503 80.0919 37.1728 80.4056C36.7953 80.7193 36.606 81.1478 36.606 81.6912C36.606 81.9443 36.6517 82.1708 36.7421 82.3697C36.8325 82.5685 36.959 82.7525 37.1228 82.9216C37.2855 83.0907 37.4822 83.2534 37.7109 83.4107C37.9395 83.5681 38.2 83.7308 38.4893 83.8999L40.716 85.2217C41.5369 85.7045 42.1367 86.1788 42.5174 86.6424C42.8981 87.1071 43.0874 87.6718 43.0874 88.3353C43.0874 89.3732 42.695 90.1941 41.9113 90.7971C41.1254 91.3979 40.0035 91.6999 38.5424 91.6999Z" fill="#092328"/>
<path d="M52.0118 79.4439C52.3255 79.4439 52.5818 79.4865 52.7806 79.5705C52.9795 79.6555 53.1368 79.764 53.2517 79.8959C53.3665 80.0288 53.4442 80.183 53.4867 80.3574C53.5292 80.5328 53.5505 80.7104 53.5505 80.8912V82.4299H53.0071C53.0071 81.6579 52.8104 81.1028 52.4191 80.7647C52.0267 80.4265 51.4684 80.2574 50.7442 80.2574H47.8295V84.7832H52.536V85.5978H47.8295V90.5766H50.925C51.5885 90.5766 52.1532 90.4288 52.6179 90.1331C53.0826 89.8375 53.4718 89.2973 53.7855 88.5125L54.2747 88.6933L53.7494 90.1236C53.6164 90.5096 53.4442 90.818 53.2336 91.0466C53.022 91.2763 52.6689 91.3901 52.1745 91.3901H45.4762V81.7962C45.4762 81.2528 45.4007 80.8157 45.2497 80.4839C45.0987 80.1522 44.752 79.9863 44.2086 79.9863H44.0278V79.4429H52.0118V79.4439Z" fill="#092328"/>
<path d="M64.9552 79.4438V80.2584H61.1717V91.391H58.8184V80.2584H57.5327C56.8926 80.2584 56.3864 80.4179 56.0121 80.738C55.6378 81.0581 55.4506 81.6227 55.4506 82.4309H54.9072V80.8922C54.9072 80.7114 54.9285 80.5328 54.971 80.3584C55.0136 80.184 55.0912 80.0298 55.206 79.8968C55.3209 79.7639 55.4772 79.6555 55.6771 79.5714C55.876 79.4874 56.1323 79.4449 56.446 79.4449H64.9552V79.4438Z" fill="#092328"/>
<path d="M69.8425 85.9241H69.1183V91.391H66.7469V81.7971C66.7469 81.2537 66.6714 80.8167 66.5204 80.4849C66.3694 80.1531 66.0227 79.9872 65.4794 79.9872H65.2986V79.4438H70.2944C70.5836 79.4438 70.9037 79.4555 71.2536 79.48C71.6034 79.5045 71.9597 79.5587 72.3212 79.6427C72.6828 79.7267 73.0358 79.8447 73.3804 79.9957C73.7238 80.1467 74.029 80.3456 74.2949 80.5934C74.5607 80.8411 74.7745 81.1431 74.9372 81.4983C75.0999 81.8545 75.1817 82.2799 75.1817 82.7744C75.1817 83.2455 75.0945 83.6527 74.9191 83.9962C74.7436 84.3397 74.515 84.63 74.2311 84.865C73.9471 85.1 73.6303 85.2904 73.2804 85.435C72.9305 85.5796 72.586 85.6945 72.2489 85.7785L74.1502 88.9463C74.3789 89.3323 74.6001 89.6492 74.8106 89.897C75.0212 90.1448 75.2243 90.3404 75.4167 90.485C75.6092 90.6297 75.7879 90.736 75.9506 90.8019C76.1133 90.8679 76.2611 90.9136 76.394 90.938V91.391C76.2972 91.4389 76.125 91.4814 75.8783 91.5176C75.6305 91.5537 75.3923 91.5718 75.1637 91.5718C74.85 91.5718 74.5448 91.5293 74.2491 91.4453C73.9535 91.3613 73.6632 91.2166 73.3804 91.0104C73.0964 90.8051 72.8125 90.534 72.5296 90.1958C72.2457 89.8576 71.9533 89.4419 71.6513 88.9463L69.8425 85.9241ZM70.2944 80.168C70.1498 80.168 70.0051 80.1744 69.8595 80.1861C69.7148 80.1978 69.5883 80.2169 69.4798 80.2403C69.3469 80.2648 69.2267 80.2829 69.1183 80.2946V85.2H70.204C70.4932 85.2 70.7836 85.1574 71.0728 85.0734C71.362 84.9894 71.6247 84.8501 71.8597 84.6566C72.0947 84.4641 72.2851 84.2036 72.4297 83.8782C72.5743 83.5528 72.6466 83.154 72.6466 82.6829C72.6466 82.2119 72.5743 81.8173 72.4297 81.4973C72.2851 81.1772 72.0979 80.9177 71.8682 80.7189C71.6385 80.52 71.3854 80.3775 71.1079 80.2935C70.8314 80.2106 70.5602 80.168 70.2944 80.168Z" fill="#092328"/>
<path d="M88.5602 79.4439C88.8739 79.4439 89.1302 79.4865 89.3301 79.5705C89.5289 79.6555 89.6863 79.764 89.8012 79.8959C89.916 80.0288 89.9936 80.183 90.0362 80.3574C90.0787 80.5328 90.1 80.7104 90.1 80.8912V82.4299H89.5566C89.5566 81.6452 89.3598 81.0879 88.9685 80.7551C88.5761 80.4233 88.0178 80.2574 87.2937 80.2574H84.7777V84.8736H88.7601V85.6882H84.7777V91.3901H82.4244V81.7962C82.4244 81.2528 82.3489 80.8157 82.1979 80.4839C82.0469 80.1522 81.7002 79.9863 81.1569 79.9863H80.9761V79.4429H88.5602V79.4439Z" fill="#092328"/>
<path d="M91.8908 79.4438H94.2441V89.0378C94.2441 89.5812 94.3196 90.0182 94.4706 90.35C94.6216 90.6818 94.9683 90.8477 95.5117 90.8477H95.6925V91.391H93.5199C93.2062 91.391 92.9436 91.3549 92.732 91.2826C92.5204 91.2103 92.3523 91.0837 92.2247 90.9019C92.0982 90.7211 92.0099 90.4797 91.9621 90.1777C91.9132 89.8768 91.8898 89.4961 91.8898 89.0378V79.4438H91.8908Z" fill="#092328"/>
<path d="M100.906 91.6999C100.411 91.6999 99.9196 91.652 99.4304 91.5553C98.9412 91.4585 98.5042 91.3171 98.1182 91.1299C97.7322 90.9427 97.4185 90.7131 97.1771 90.4419C96.9357 90.1707 96.8145 89.8655 96.8145 89.5274V87.4091H97.3578C97.5493 88.6639 97.9363 89.5572 98.518 90.0888C99.0997 90.6205 99.894 90.8853 100.902 90.8853C101.586 90.8853 102.135 90.7375 102.548 90.4419C102.962 90.1463 103.169 89.7092 103.169 89.1297C103.169 88.6107 103.003 88.179 102.672 87.8355C102.34 87.492 101.884 87.1443 101.305 86.7945L99.0784 85.4546C98.2575 84.9718 97.6779 84.4773 97.3408 83.9701C97.0027 83.4629 96.8336 82.878 96.8336 82.2144C96.8336 81.2616 97.1983 80.5066 97.9289 79.9515C98.6594 79.3964 99.6452 79.1189 100.888 79.1189C101.383 79.1189 101.875 79.1678 102.363 79.2635C102.852 79.3603 103.289 79.5017 103.675 79.6889C104.061 79.876 104.375 80.1057 104.617 80.3769C104.858 80.6481 104.979 80.9533 104.979 81.2914V83.4097H104.436C104.232 82.1549 103.849 81.2616 103.285 80.731C102.722 80.2004 101.985 79.9345 101.073 79.9345C100.426 79.9345 99.9132 80.0919 99.5357 80.4056C99.1582 80.7193 98.9689 81.1478 98.9689 81.6912C98.9689 81.9443 99.0146 82.1708 99.105 82.3697C99.1954 82.5685 99.3219 82.7525 99.4846 82.9216C99.6473 83.0907 99.844 83.2534 100.073 83.4107C100.301 83.5681 100.562 83.7308 100.851 83.8999L103.078 85.2217C103.899 85.7045 104.499 86.1788 104.879 86.6424C105.26 87.1071 105.449 87.6718 105.449 88.3353C105.449 89.3732 105.057 90.1941 104.272 90.7971C103.488 91.3979 102.366 91.6999 100.906 91.6999Z" fill="#092328"/>
<path d="M115.08 79.4438H117.434V89.0378C117.434 89.5812 117.509 90.0182 117.66 90.35C117.811 90.6818 118.158 90.8477 118.701 90.8477H118.882V91.391H116.71C116.396 91.391 116.133 91.3549 115.922 91.2826C115.71 91.2103 115.541 91.0837 115.414 90.9019C115.288 90.7211 115.2 90.4797 115.152 90.1777C115.103 89.8768 115.079 89.4961 115.079 89.0378V85.5988H110.192V91.3921H107.839V81.7982C107.839 81.2548 107.763 80.8177 107.612 80.486C107.461 80.1542 107.115 79.9883 106.571 79.9883H106.39V79.4449H108.563C108.877 79.4449 109.139 79.4843 109.351 79.5629C109.561 79.6416 109.732 79.7714 109.858 79.9521C109.985 80.1329 110.072 80.3743 110.121 80.6763C110.169 80.9783 110.193 81.3526 110.193 81.7982V84.7853H115.08V79.4438Z" fill="#092328"/>
<path d="M56.0225 98.3162C56.0225 98.431 56.0799 98.5236 56.1948 98.5927C56.3096 98.6618 56.4489 98.7182 56.6116 98.7596C56.7743 98.8011 56.937 98.849 57.0997 98.9021C57.2624 98.9553 57.4017 99.0467 57.5166 99.1765C57.6314 99.3052 57.6889 99.471 57.6889 99.6741C57.6889 99.9442 57.5846 100.16 57.3762 100.323C57.1678 100.486 56.9009 100.567 56.5755 100.567C56.2852 100.567 56.0374 100.504 55.8311 100.377C55.6248 100.251 55.4781 100.081 55.3909 99.8709L55.8375 99.6146C55.8853 99.7571 55.9747 99.8709 56.1055 99.9538C56.2363 100.037 56.3936 100.079 56.5755 100.079C56.7456 100.079 56.8871 100.046 56.9987 99.9815C57.1093 99.9155 57.1657 99.8135 57.1657 99.6752C57.1657 99.5604 57.1082 99.4679 56.9934 99.3987C56.8786 99.3296 56.7393 99.2732 56.5766 99.2318C56.4139 99.1903 56.2512 99.1414 56.0885 99.0861C55.9258 99.0308 55.7865 98.9393 55.6716 98.8117C55.5568 98.6852 55.4993 98.5225 55.4993 98.3236C55.4993 98.0652 55.5993 97.8536 55.8003 97.6867C56.0002 97.5197 56.2522 97.4368 56.5532 97.4368C56.7956 97.4368 57.0104 97.491 57.1997 97.6005C57.3879 97.7101 57.5304 97.8621 57.6251 98.0557L57.1901 98.3002C57.0827 98.0461 56.87 97.9196 56.5532 97.9196C56.4064 97.9196 56.2809 97.9546 56.1778 98.0238C56.0736 98.0908 56.0225 98.1897 56.0225 98.3162Z" fill="#092328"/>
<path d="M58.5355 96.9712C58.4366 96.9712 58.3526 96.9372 58.2856 96.8702C58.2175 96.8032 58.1846 96.7213 58.1846 96.6256C58.1846 96.5299 58.2186 96.448 58.2856 96.3789C58.3526 96.3098 58.4366 96.2747 58.5355 96.2747C58.6312 96.2747 58.712 96.3098 58.7801 96.3789C58.8471 96.448 58.8811 96.5309 58.8811 96.6256C58.8811 96.7213 58.8471 96.8021 58.7801 96.8702C58.712 96.9372 58.6312 96.9712 58.5355 96.9712ZM58.2739 100.49V97.5124H58.7918V100.49H58.2739Z" fill="#092328"/>
<path d="M61.0661 97.4346C61.4149 97.4346 61.6956 97.5452 61.9062 97.7653C62.1167 97.9854 62.222 98.2842 62.222 98.6617V100.49H61.7041V98.6915C61.7041 98.449 61.6382 98.2619 61.5074 98.129C61.3766 97.996 61.1958 97.929 60.9651 97.929C60.7067 97.929 60.4983 98.0099 60.3398 98.1704C60.1814 98.331 60.1016 98.5788 60.1016 98.9116V100.49H59.5837V97.5122H60.1016V97.9407C60.3122 97.6036 60.6333 97.4346 61.0661 97.4346Z" fill="#092328"/>
<path d="M64.3415 100.567C63.8928 100.567 63.5195 100.417 63.2218 100.117C62.924 99.8176 62.7751 99.4454 62.7751 99.0009C62.7751 98.5564 62.924 98.1843 63.2218 97.8844C63.5195 97.5845 63.8928 97.4346 64.3415 97.4346C64.635 97.4346 64.8987 97.5048 65.1337 97.6462C65.3677 97.7876 65.5421 97.9769 65.658 98.2151L65.2231 98.465C65.1476 98.3066 65.0317 98.1789 64.8743 98.0843C64.7169 97.9886 64.5393 97.9418 64.3415 97.9418C64.0438 97.9418 63.7949 98.0428 63.594 98.2459C63.393 98.448 63.293 98.7011 63.293 99.002C63.293 99.2998 63.393 99.5497 63.594 99.7528C63.7939 99.9548 64.0438 100.057 64.3415 100.057C64.5404 100.057 64.719 100.01 64.8775 99.9165C65.0359 99.823 65.1571 99.6975 65.2412 99.538L65.6814 99.7942C65.5538 100.028 65.3719 100.216 65.1337 100.357C64.8955 100.497 64.6308 100.567 64.3415 100.567Z" fill="#092328"/>
<path d="M66.5151 99.239C66.5661 99.5048 66.6884 99.7111 66.8809 99.8579C67.0734 100.005 67.3105 100.078 67.5923 100.078C67.9858 100.078 68.2708 99.9334 68.4494 99.6431L68.8896 99.893C68.5993 100.342 68.1633 100.566 67.5795 100.566C67.1074 100.566 66.7225 100.418 66.4268 100.123C66.1312 99.827 65.9834 99.4527 65.9834 98.9997C65.9834 98.551 66.128 98.1777 66.4183 97.88C66.7086 97.5822 67.0829 97.4333 67.5434 97.4333C67.9804 97.4333 68.3367 97.5875 68.6121 97.8949C68.8875 98.2022 69.0258 98.5733 69.0258 99.005C69.0258 99.0805 69.0194 99.1582 69.0077 99.2369H66.5151V99.239ZM67.5455 97.9236C67.268 97.9236 67.0372 98.0023 66.8543 98.1586C66.6714 98.3149 66.5587 98.5244 66.5151 98.787H68.5036C68.46 98.5052 68.3484 98.2904 68.1697 98.1437C67.9921 97.9969 67.7837 97.9236 67.5455 97.9236Z" fill="#092328"/>
<path d="M70.9336 100.49V100.037L72.4042 98.5364C72.7977 98.143 72.9933 97.8059 72.9933 97.5241C72.9933 97.2901 72.9221 97.1072 72.7785 96.9764C72.636 96.8456 72.4606 96.7797 72.2543 96.7797C71.8608 96.7797 71.5758 96.9658 71.3972 97.339L70.9325 97.0647C71.0633 96.7946 71.2451 96.5904 71.477 96.4511C71.7088 96.3118 71.9661 96.2427 72.2479 96.2427C72.5967 96.2427 72.9008 96.3575 73.1592 96.5883C73.4176 96.819 73.5463 97.1285 73.5463 97.5177C73.5463 97.9388 73.2985 98.3971 72.8019 98.8937L71.7364 99.9539H73.6239V100.49H70.9336Z" fill="#092328"/>
<path d="M76.8587 99.9781C76.577 100.372 76.1814 100.567 75.6741 100.567C75.1658 100.567 74.7713 100.37 74.4895 99.9781C74.2077 99.5847 74.0663 99.0615 74.0663 98.4064C74.0663 97.7514 74.2067 97.2271 74.4895 96.8347C74.7713 96.4413 75.1658 96.2456 75.6741 96.2456C76.1824 96.2456 76.577 96.4423 76.8587 96.8347C77.1405 97.2282 77.282 97.7514 77.282 98.4064C77.282 99.0604 77.1405 99.5847 76.8587 99.9781ZM74.8936 99.6027C75.0765 99.8845 75.336 100.026 75.6741 100.026C76.0112 100.026 76.2728 99.8856 76.4568 99.6027C76.6418 99.3209 76.7333 98.9222 76.7333 98.4054C76.7333 97.8885 76.6408 97.4887 76.4568 97.2058C76.2718 96.9219 76.0112 96.7805 75.6741 96.7805C75.337 96.7805 75.0765 96.9219 74.8936 97.2037C74.7107 97.4855 74.6192 97.8864 74.6192 98.4064C74.6192 98.9222 74.7107 99.3209 74.8936 99.6027Z" fill="#092328"/>
<path d="M77.6864 100.49V100.037L79.157 98.5364C79.5505 98.143 79.7462 97.8059 79.7462 97.5241C79.7462 97.2901 79.6749 97.1072 79.5313 96.9764C79.3889 96.8456 79.2134 96.7797 79.0071 96.7797C78.6136 96.7797 78.3287 96.9658 78.15 97.339L77.6853 97.0647C77.8161 96.7946 77.9979 96.5904 78.2298 96.4511C78.4616 96.3118 78.7189 96.2427 79.0007 96.2427C79.3495 96.2427 79.6536 96.3575 79.912 96.5883C80.1704 96.819 80.2991 97.1285 80.2991 97.5177C80.2991 97.9388 80.0513 98.3971 79.5547 98.8937L78.4892 99.9539H80.3767V100.49H77.6864Z" fill="#092328"/>
<path d="M83.6113 99.9781C83.3295 100.372 82.9339 100.567 82.4267 100.567C81.9184 100.567 81.5239 100.37 81.2421 99.9781C80.9603 99.5847 80.8188 99.0615 80.8188 98.4064C80.8188 97.7514 80.9592 97.2271 81.2421 96.8347C81.5239 96.4413 81.9184 96.2456 82.4267 96.2456C82.935 96.2456 83.3295 96.4423 83.6113 96.8347C83.8931 97.2282 84.0345 97.7514 84.0345 98.4064C84.0345 99.0604 83.8931 99.5847 83.6113 99.9781ZM81.6462 99.6027C81.8291 99.8845 82.0885 100.026 82.4267 100.026C82.7638 100.026 83.0254 99.8856 83.2094 99.6027C83.3944 99.3209 83.4858 98.9222 83.4858 98.4054C83.4858 97.8885 83.3933 97.4887 83.2094 97.2058C83.0243 96.9219 82.7638 96.7805 82.4267 96.7805C82.0896 96.7805 81.8291 96.9219 81.6462 97.2037C81.4633 97.4855 81.3718 97.8864 81.3718 98.4064C81.3729 98.9222 81.4643 99.3209 81.6462 99.6027Z" fill="#092328"/>
<path d="M54.6531 105.474C54.8435 105.565 54.9955 105.696 55.1082 105.867C55.221 106.039 55.2784 106.234 55.2784 106.456C55.2784 106.79 55.1614 107.07 54.9275 107.297C54.6935 107.523 54.4075 107.636 54.0704 107.636H52.2711V103.467H53.9385C54.2639 103.467 54.5404 103.577 54.7658 103.795C54.9923 104.013 55.1051 104.283 55.1051 104.605C55.1051 104.974 54.954 105.264 54.6531 105.474ZM53.9385 103.985H52.8251V105.259H53.9385C54.1129 105.259 54.2597 105.197 54.3788 105.074C54.4979 104.951 54.5574 104.8 54.5574 104.621C54.5574 104.447 54.4968 104.297 54.3756 104.171C54.2543 104.048 54.1087 103.985 53.9385 103.985ZM54.0693 107.118C54.2554 107.118 54.4128 107.052 54.5393 106.921C54.6659 106.79 54.7297 106.63 54.7297 106.438C54.7297 106.252 54.6648 106.093 54.5361 105.962C54.4075 105.831 54.2511 105.765 54.0682 105.765H52.8241V107.117H54.0693V107.118Z" fill="#092328"/>
<path d="M57.8685 104.657H58.4226L57.2082 107.82C57.0806 108.157 56.903 108.414 56.6754 108.591C56.4468 108.767 56.1841 108.846 55.8864 108.826V108.343C56.2511 108.371 56.5191 108.169 56.6903 107.736L56.7435 107.623L55.4451 104.657H55.9991L57.0114 106.992L57.8685 104.657Z" fill="#092328"/>
<path d="M63.1444 107.636L62.8051 106.701H60.9293L60.5901 107.636H60.001L61.5557 103.467H62.1809L63.7356 107.636H63.1444ZM61.1197 106.183H62.6148L61.864 104.129L61.1197 106.183Z" fill="#092328"/>
<path d="M64.5915 105.462C64.5915 105.577 64.6489 105.67 64.7638 105.739C64.8786 105.808 65.0179 105.864 65.1806 105.906C65.3433 105.947 65.506 105.995 65.6687 106.048C65.8314 106.101 65.9707 106.193 66.0856 106.322C66.2004 106.451 66.2578 106.617 66.2578 106.82C66.2578 107.09 66.1536 107.306 65.9452 107.469C65.7368 107.631 65.4699 107.713 65.1445 107.713C64.8542 107.713 64.6064 107.65 64.4001 107.523C64.1938 107.396 64.047 107.227 63.9598 107.017L64.4065 106.761C64.4543 106.903 64.5436 107.017 64.6744 107.1C64.8052 107.183 64.9626 107.225 65.1445 107.225C65.3146 107.225 65.456 107.192 65.5677 107.127C65.6783 107.062 65.7346 106.959 65.7346 106.821C65.7346 106.706 65.6772 106.614 65.5624 106.545C65.4475 106.476 65.3082 106.419 65.1455 106.378C64.9828 106.336 64.8201 106.287 64.6574 106.232C64.4947 106.177 64.3554 106.085 64.2406 105.958C64.1257 105.831 64.0683 105.668 64.0683 105.47C64.0683 105.211 64.1683 105 64.3692 104.833C64.5692 104.666 64.8212 104.583 65.1221 104.583C65.3646 104.583 65.5794 104.637 65.7687 104.747C65.9569 104.856 66.0994 105.008 66.194 105.202L65.7591 105.446C65.6517 105.192 65.439 105.066 65.1221 105.066C64.9754 105.066 64.8499 105.101 64.7468 105.17C64.6436 105.237 64.5915 105.336 64.5915 105.462Z" fill="#092328"/>
<path d="M68.3732 105.159H67.581V106.773C67.581 106.92 67.6097 107.024 67.6671 107.086C67.7245 107.147 67.8128 107.179 67.9319 107.181C68.051 107.184 68.1977 107.18 68.3721 107.173V107.638C67.9191 107.697 67.5884 107.66 67.3778 107.527C67.1673 107.394 67.062 107.143 67.062 106.774V105.16H66.4729V104.66H67.062V103.982L67.5799 103.826V104.66H68.3721V105.159H68.3732Z" fill="#092328"/>
<path d="M69.5223 105.158C69.6924 104.789 70.0029 104.604 70.4517 104.604V105.147C70.1975 105.135 69.9795 105.202 69.7966 105.349C69.6137 105.495 69.5223 105.731 69.5223 106.057V107.635H69.0044V104.657H69.5223V105.158Z" fill="#092328"/>
<path d="M73.2624 104.658H73.7803V107.636H73.2624V107.123C73.004 107.517 72.6286 107.712 72.1374 107.712C71.7205 107.712 71.3653 107.56 71.0718 107.257C70.7783 106.953 70.6316 106.583 70.6316 106.147C70.6316 105.71 70.7783 105.34 71.0718 105.037C71.3653 104.733 71.7205 104.582 72.1374 104.582C72.6297 104.582 73.0051 104.779 73.2624 105.171V104.658ZM72.2022 107.214C72.5042 107.214 72.7562 107.112 72.9583 106.907C73.1603 106.703 73.2624 106.45 73.2624 106.148C73.2624 105.846 73.1614 105.593 72.9583 105.389C72.7562 105.185 72.5032 105.083 72.2022 105.083C71.9045 105.083 71.6546 105.185 71.4515 105.389C71.2484 105.593 71.1473 105.846 71.1473 106.148C71.1473 106.45 71.2484 106.703 71.4515 106.907C71.6546 107.112 71.9045 107.214 72.2022 107.214Z" fill="#092328"/>
<path d="M77.0856 107.636H76.4422L75.0843 106.225V107.636H74.5664V103.467H75.0843V105.975L76.371 104.658H77.0377L75.6149 106.099L77.0856 107.636Z" fill="#092328"/>
<path d="M79.0505 104.581C79.3993 104.581 79.68 104.691 79.8906 104.911C80.1011 105.132 80.2064 105.43 80.2064 105.808V107.636H79.6885V105.838C79.6885 105.595 79.6226 105.408 79.4918 105.275C79.361 105.142 79.1802 105.075 78.9495 105.075C78.6911 105.075 78.4826 105.156 78.3242 105.317C78.1657 105.477 78.086 105.725 78.086 106.058V107.636H77.5681V103.467H78.086V105.087C78.2955 104.75 78.6177 104.581 79.0505 104.581Z" fill="#092328"/>
<path d="M83.3913 104.658H83.9092V107.636H83.3913V107.123C83.1329 107.517 82.7576 107.712 82.2663 107.712C81.8494 107.712 81.4942 107.56 81.2007 107.257C80.9072 106.953 80.7605 106.583 80.7605 106.147C80.7605 105.71 80.9072 105.34 81.2007 105.037C81.4942 104.733 81.8494 104.582 82.2663 104.582C82.7586 104.582 83.134 104.779 83.3913 105.171V104.658ZM82.3311 107.214C82.6331 107.214 82.8852 107.112 83.0872 106.907C83.2892 106.703 83.3913 106.45 83.3913 106.148C83.3913 105.846 83.2903 105.593 83.0872 105.389C82.8852 105.185 82.6321 105.083 82.3311 105.083C82.0334 105.083 81.7835 105.185 81.5804 105.389C81.3773 105.593 81.2762 105.846 81.2762 106.148C81.2762 106.45 81.3773 106.703 81.5804 106.907C81.7835 107.112 82.0334 107.214 82.3311 107.214Z" fill="#092328"/>
<path d="M86.1787 104.58C86.5274 104.58 86.8082 104.691 87.0187 104.911C87.2293 105.131 87.3346 105.43 87.3346 105.807V107.635H86.8167V105.837C86.8167 105.595 86.7508 105.407 86.62 105.274C86.4892 105.142 86.3084 105.075 86.0776 105.075C85.8192 105.075 85.6108 105.155 85.4524 105.316C85.2939 105.477 85.2142 105.724 85.2142 106.057V107.635H84.6963V104.658H85.2142V105.086C85.4247 104.749 85.7459 104.58 86.1787 104.58Z" fill="#092328"/>
<path d="M52.5178 96.6796V97.7642C51.4864 97.9801 50.809 98.4437 50.1039 98.9255C49.0448 99.6518 47.9485 100.401 45.7653 100.401C43.5811 100.401 42.4847 99.6518 41.4256 98.9255C40.4569 98.263 39.5423 97.6366 37.6867 97.6366C35.8322 97.6366 34.9177 98.263 33.9489 98.9255C32.8887 99.6507 31.7934 100.401 29.6092 100.401C27.425 100.401 26.3297 99.6518 25.2706 98.9255C24.3018 98.263 23.3873 97.6366 21.5317 97.6366C21.2382 97.6366 21 97.3984 21 97.1049C21 96.8114 21.2382 96.5732 21.5317 96.5732C23.7159 96.5732 24.8112 97.3229 25.8714 98.0482C26.8401 98.7117 27.7547 99.3381 29.6092 99.3381C31.4638 99.3381 32.3793 98.7117 33.3481 98.0482C34.4072 97.3229 35.5025 96.5732 37.6867 96.5732C39.8709 96.5732 40.9662 97.3229 42.0264 98.0482C42.9952 98.7117 43.9097 99.3381 45.7653 99.3381C47.6199 99.3381 48.5344 98.7117 49.5031 98.0482C50.3241 97.4867 51.1663 96.9103 52.5178 96.6796Z" fill="#092328"/>
<path d="M53.0614 97.2173C53.0614 97.4905 52.8487 97.7192 52.5893 97.7521C52.2787 97.7915 51.9746 97.5405 51.9746 97.2173C51.9746 96.9153 52.2394 96.6632 52.5467 96.6781C52.8306 96.693 53.0614 96.9323 53.0614 97.2173Z" fill="#092328"/>
<path d="M119 97.1042C119 97.3977 118.763 97.6359 118.468 97.6359C116.614 97.6359 115.698 98.2622 114.729 98.9247C113.67 99.651 112.574 100.401 110.39 100.401C108.206 100.401 107.11 99.651 106.05 98.9247C105.081 98.2622 104.167 97.6359 102.311 97.6359C100.457 97.6359 99.541 98.2622 98.5723 98.9247C97.5131 99.651 96.4178 100.401 94.2336 100.401C92.0494 100.401 90.9531 99.651 89.8939 98.9247C89.1889 98.443 88.5126 97.9804 87.4822 97.7635V96.6799C88.8327 96.9107 89.6738 97.486 90.4948 98.0474C91.4635 98.711 92.378 99.3373 94.2336 99.3373C96.0882 99.3373 97.0038 98.711 97.9725 98.0474C99.0317 97.3222 100.127 96.5725 102.311 96.5725C104.495 96.5725 105.592 97.3222 106.651 98.0474C107.62 98.711 108.535 99.3373 110.39 99.3373C112.245 99.3373 113.16 98.711 114.13 98.0474C115.189 97.3222 116.284 96.5725 118.468 96.5725C118.763 96.5725 119 96.8107 119 97.1042Z" fill="#092328"/>
<path d="M87.4599 97.7706C87.76 97.7706 88.0033 97.5273 88.0033 97.2272C88.0033 96.9271 87.76 96.6838 87.4599 96.6838C87.1598 96.6838 86.9165 96.9271 86.9165 97.2272C86.9165 97.5273 87.1598 97.7706 87.4599 97.7706Z" fill="#092328"/>
</svg>
