<svg width="13" height="22" viewBox="0 0 13 22" fill="none" xmlns="http://www.w3.org/2000/svg">
<path d="M0.293645 11.6852L10.8448 21.7384C11.0208 21.9062 11.2547 21.9998 11.4979 21.9998C11.7412 21.9998 11.9751 21.9062 12.1511 21.7384L12.1625 21.727C12.2481 21.6456 12.3163 21.5477 12.3629 21.4392C12.4095 21.3306 12.4335 21.2137 12.4335 21.0956C12.4335 20.9775 12.4095 20.8606 12.3629 20.752C12.3163 20.6435 12.2481 20.5456 12.1625 20.4642L2.22666 10.9979L12.1625 1.53543C12.2481 1.45407 12.3163 1.35614 12.3629 1.24759C12.4095 1.13905 12.4335 1.02216 12.4335 0.90403C12.4335 0.785904 12.4095 0.669012 12.3629 0.560465C12.3163 0.45192 12.2481 0.353989 12.1625 0.272629L12.1511 0.261269C11.9751 0.093441 11.7412 -0.000183105 11.4979 -0.000183105C11.2547 -0.000183105 11.0208 0.093441 10.8448 0.261269L0.293645 10.3145C0.200852 10.4029 0.126979 10.5092 0.0765029 10.627C0.0260273 10.7448 0 10.8717 0 10.9998C0 11.128 0.0260273 11.2548 0.0765029 11.3726C0.126979 11.4904 0.200852 11.5968 0.293645 11.6852Z" fill="white"/>
</svg>
