<svg width="13" height="22" viewBox="0 0 13 22" fill="none" xmlns="http://www.w3.org/2000/svg">
<path d="M12.7064 10.3148L2.15524 0.261633C1.97919 0.0938059 1.74529 0.000183105 1.50207 0.000183105C1.25884 0.000183105 1.02494 0.0938059 0.848893 0.261633L0.837533 0.272993C0.751891 0.354352 0.683697 0.452283 0.637097 0.560829C0.590497 0.669375 0.566465 0.786267 0.566465 0.904393C0.566465 1.02252 0.590497 1.13941 0.637097 1.24796C0.683697 1.3565 0.751891 1.45443 0.837533 1.53579L10.7733 11.0021L0.837533 20.4646C0.751891 20.5459 0.683697 20.6439 0.637097 20.7524C0.590497 20.861 0.566465 20.9778 0.566465 21.096C0.566465 21.2141 0.590497 21.331 0.637097 21.4395C0.683697 21.5481 0.751891 21.646 0.837533 21.7274L0.848893 21.7387C1.02494 21.9066 1.25884 22.0002 1.50207 22.0002C1.74529 22.0002 1.97919 21.9066 2.15524 21.7387L12.7064 11.6855C12.7991 11.5971 12.873 11.4908 12.9235 11.373C12.974 11.2552 13 11.1283 13 11.0002C13 10.872 12.974 10.7452 12.9235 10.6274C12.873 10.5096 12.7991 10.4032 12.7064 10.3148Z" fill="white"/>
</svg>
