<svg width="73" height="72" viewBox="0 0 73 72" fill="none" xmlns="http://www.w3.org/2000/svg">
<path fill-rule="evenodd" clip-rule="evenodd" d="M20.0625 22.5C20.0625 13.4218 27.4218 6.0625 36.5 6.0625C45.5782 6.0625 52.9375 13.4218 52.9375 22.5C52.9375 25.3797 52.197 28.0864 50.896 30.4402C50.7389 30.6104 50.6238 30.8116 50.5554 31.0274C48.2002 34.901 44.2888 37.724 39.6891 38.6283C39.6476 38.6346 39.6064 38.6426 39.5656 38.6521C38.5724 38.8395 37.5477 38.9375 36.5 38.9375C27.4218 38.9375 20.0625 31.5782 20.0625 22.5ZM56.0625 22.5C56.0625 25.7613 55.2644 28.8362 53.853 31.5401L67.1169 55.4931C67.3856 55.9782 67.3769 56.5695 67.0942 57.0466C66.8115 57.5237 66.297 57.8152 65.7424 57.8125L53.5278 57.7534H53.5274C53.4078 57.7528 53.2902 57.7834 53.186 57.8422C53.082 57.9009 52.995 57.9857 52.9338 58.0883L52.9336 58.0886L46.8419 68.3005C46.544 68.7998 45.9936 69.0924 45.4131 69.0601C44.8327 69.0278 44.3181 68.6758 44.0776 68.1466L36.5001 51.4762L28.9224 68.1465C28.6819 68.6758 28.1673 69.0277 27.5868 69.06C27.0064 69.0923 26.456 68.7997 26.1581 68.3004L20.0664 58.0885L20.0662 58.0882C20.005 57.9856 19.918 57.9008 19.814 57.8421C19.7098 57.7833 19.5922 57.7527 19.4726 57.7533H19.4722L7.25756 57.8124C6.7026 57.8151 6.18786 57.5232 5.90526 57.0456C5.62266 56.568 5.61461 55.9763 5.88411 55.4911L19.1676 31.5794C17.7433 28.866 16.9375 25.7771 16.9375 22.5C16.9375 11.6959 25.6959 2.9375 36.5 2.9375C47.3041 2.9375 56.0625 11.6959 56.0625 22.5ZM41.0174 41.5383C45.4158 40.4986 49.2404 37.9741 51.9327 34.5232L63.0916 54.6746L53.5432 54.6285H53.5429C52.8799 54.6252 52.2274 54.7948 51.65 55.1207C51.0725 55.4467 50.59 55.9176 50.2502 56.4871L50.25 56.4873L45.6873 64.1361L38.2165 47.7003L41.0174 41.5383ZM37.3548 42.0442L35.0894 47.028C35.0845 47.0382 35.0798 47.0485 35.0751 47.0588C35.0723 47.0651 35.0694 47.0715 35.0667 47.0779L27.3127 64.136L22.75 56.4873L22.7498 56.487C22.41 55.9175 21.9275 55.4466 21.35 55.1206C20.7726 54.7948 20.1202 54.6251 19.4571 54.6284H19.4568L9.91258 54.6745L21.0906 34.553C24.6715 39.1246 30.2426 42.0625 36.5 42.0625C36.7864 42.0625 37.0714 42.0563 37.3548 42.0442ZM29.0625 22.5C29.0625 18.3924 32.3924 15.0625 36.5 15.0625C40.6076 15.0625 43.9375 18.3924 43.9375 22.5C43.9375 26.6076 40.6076 29.9375 36.5 29.9375C32.3924 29.9375 29.0625 26.6076 29.0625 22.5ZM36.5 11.9375C30.6665 11.9375 25.9375 16.6665 25.9375 22.5C25.9375 28.3335 30.6665 33.0625 36.5 33.0625C42.3335 33.0625 47.0625 28.3335 47.0625 22.5C47.0625 16.6665 42.3335 11.9375 36.5 11.9375Z" fill="url(#paint0_linear_44_1070)"/>
<defs>
<linearGradient id="paint0_linear_44_1070" x1="15.4915" y1="59.7449" x2="62.8211" y2="16.1945" gradientUnits="userSpaceOnUse">
<stop stop-color="#FFD661"/>
<stop offset="0.232292" stop-color="#FA7E1E"/>
<stop offset="0.805208" stop-color="#930DC8"/>
<stop offset="1" stop-color="#D62976"/>
</linearGradient>
</defs>
</svg>
