<svg width="17" height="18" viewBox="0 0 17 18" fill="none" xmlns="http://www.w3.org/2000/svg">
<path d="M9.37381 0.226876C9.99405 0.224496 10.6143 0.230729 11.2344 0.245575L11.3993 0.251525C11.5896 0.258324 11.7775 0.266824 12.0044 0.277023C12.9088 0.319521 13.5258 0.462314 14.0673 0.672253C14.6282 0.888142 15.1008 1.18053 15.5734 1.6531C16.0055 2.07775 16.3399 2.59141 16.5534 3.15837C16.7633 3.6998 16.9061 4.31771 16.9486 5.22207C16.9588 5.44816 16.9673 5.63685 16.9741 5.82724L16.9792 5.99213C16.9943 6.61191 17.0008 7.23187 16.9988 7.85183L16.9996 8.4859V9.59934C17.0017 10.2196 16.9952 10.8398 16.9801 11.4599L16.975 11.6248C16.9682 11.8152 16.9597 12.003 16.9495 12.23C16.907 13.1343 16.7625 13.7514 16.5534 14.2928C16.3406 14.8604 16.0061 15.3744 15.5734 15.7989C15.1484 16.231 14.6345 16.5654 14.0673 16.7789C13.5258 16.9889 12.9088 17.1317 12.0044 17.1741C11.7775 17.1843 11.5896 17.1928 11.3993 17.1996L11.2344 17.2047C10.6143 17.2199 9.99405 17.2264 9.37381 17.2243L8.73974 17.2251H7.62715C7.0069 17.2272 6.38666 17.2207 5.76659 17.2056L5.6017 17.2005C5.39993 17.1932 5.1982 17.1847 4.99653 17.175C4.09218 17.1325 3.47511 16.988 2.93284 16.7789C2.36565 16.5659 1.8519 16.2314 1.42757 15.7989C0.994978 15.3742 0.660247 14.8602 0.446718 14.2928C0.236778 13.7514 0.0939856 13.1343 0.0514878 12.23C0.0420217 12.0283 0.0335221 11.8265 0.0259891 11.6248L0.0217394 11.4599C0.00606927 10.8398 -0.00101446 10.2196 0.000490425 9.59934V7.85183C-0.00188177 7.23187 0.0043519 6.61191 0.0191895 5.99213L0.0251392 5.82724C0.0319389 5.63685 0.0404384 5.44816 0.0506379 5.22207C0.0931357 4.31686 0.235928 3.70065 0.445867 3.15837C0.659523 2.59113 0.994909 2.07761 1.42842 1.65395C1.85246 1.22111 2.36589 0.886079 2.93284 0.672253C3.47511 0.462314 4.09133 0.319521 4.99653 0.277023L5.6017 0.251525L5.76659 0.247275C6.38637 0.231613 7.00633 0.224529 7.6263 0.226026L9.37381 0.226876ZM8.50005 4.47666C7.93696 4.46869 7.37791 4.57272 6.85537 4.7827C6.33283 4.99267 5.85724 5.30441 5.45623 5.69979C5.05522 6.09517 4.73679 6.5663 4.51944 7.08582C4.3021 7.60533 4.19017 8.16286 4.19017 8.72601C4.19017 9.28916 4.3021 9.84669 4.51944 10.3662C4.73679 10.8857 5.05522 11.3569 5.45623 11.7522C5.85724 12.1476 6.33283 12.4593 6.85537 12.6693C7.37791 12.8793 7.93696 12.9833 8.50005 12.9754C9.62717 12.9754 10.7081 12.5276 11.5051 11.7306C12.3021 10.9336 12.7498 9.8527 12.7498 8.72559C12.7498 7.59847 12.3021 6.51753 11.5051 5.72054C10.7081 4.92355 9.62717 4.47666 8.50005 4.47666ZM8.50005 6.17657C8.83877 6.17033 9.17533 6.23164 9.49008 6.35693C9.80483 6.48223 10.0915 6.66898 10.3332 6.90629C10.575 7.1436 10.767 7.42671 10.8982 7.73908C11.0293 8.05144 11.0968 8.38681 11.0969 8.72558C11.097 9.06435 11.0295 9.39973 10.8985 9.71214C10.7675 10.0246 10.5755 10.3077 10.3338 10.5451C10.0921 10.7825 9.80558 10.9694 9.49087 11.0948C9.17616 11.2202 8.83962 11.2816 8.50091 11.2755C7.82464 11.2755 7.17607 11.0068 6.69787 10.5286C6.21968 10.0504 5.95104 9.40185 5.95104 8.72559C5.95104 8.04932 6.21968 7.40075 6.69787 6.92256C7.17607 6.44436 7.82464 6.17572 8.50091 6.17572L8.50005 6.17657ZM12.9623 3.20172C12.6881 3.2127 12.4288 3.32934 12.2387 3.52723C12.0486 3.72512 11.9424 3.9889 11.9424 4.26332C11.9424 4.53774 12.0486 4.80152 12.2387 4.9994C12.4288 5.19729 12.6881 5.31394 12.9623 5.32491C13.2441 5.32491 13.5143 5.21298 13.7136 5.01373C13.9128 4.81448 14.0248 4.54424 14.0248 4.26247C14.0248 3.98069 13.9128 3.71045 13.7136 3.5112C13.5143 3.31196 13.2441 3.20002 12.9623 3.20002V3.20172Z" fill="#FDBA00"/>
</svg>
