<svg width="73" height="72" viewBox="0 0 73 72" fill="none" xmlns="http://www.w3.org/2000/svg">
<path d="M61.7071 6.75H44.4243C43.8869 6.74961 43.3712 6.96195 42.9899 7.34063L8.43834 41.8922C7.68179 42.6524 7.25708 43.6814 7.25708 44.7539C7.25708 45.8265 7.68179 46.8554 8.43834 47.6156L24.8915 64.0687C25.6517 64.8253 26.6806 65.25 27.7532 65.25C28.8257 65.25 29.8546 64.8253 30.6149 64.0687L65.1524 29.5313C65.5311 29.15 65.7434 28.6343 65.743 28.0969V10.8C65.7456 10.2686 65.6431 9.74194 65.4414 9.25032C65.2397 8.7587 64.9427 8.31182 64.5676 7.93541C64.1925 7.559 63.7467 7.26049 63.2557 7.05705C62.7648 6.8536 62.2385 6.74926 61.7071 6.75Z" stroke="url(#paint0_linear_44_1077)" stroke-width="4" stroke-linecap="round" stroke-linejoin="round"/>
<path d="M54.5 22.5C53.61 22.5 52.74 22.2361 51.9999 21.7416C51.2599 21.2471 50.6831 20.5443 50.3425 19.7221C50.0019 18.8998 49.9128 17.995 50.0865 17.1221C50.2601 16.2492 50.6887 15.4474 51.318 14.818C51.9474 14.1887 52.7492 13.7601 53.6221 13.5865C54.495 13.4128 55.3998 13.5019 56.2221 13.8425C57.0443 14.1831 57.7471 14.7599 58.2416 15.4999C58.7361 16.24 59 17.11 59 18C59 19.1935 58.5259 20.3381 57.682 21.182C56.8381 22.0259 55.6935 22.5 54.5 22.5Z" fill="url(#paint1_linear_44_1077)"/>
<defs>
<linearGradient id="paint0_linear_44_1077" x1="16.5617" y1="57.0068" x2="58.5752" y2="15.5351" gradientUnits="userSpaceOnUse">
<stop stop-color="#FFD661"/>
<stop offset="0.232292" stop-color="#FA7E1E"/>
<stop offset="0.805208" stop-color="#930DC8"/>
<stop offset="1" stop-color="#D62976"/>
</linearGradient>
<linearGradient id="paint1_linear_44_1077" x1="51.4318" y1="21.2318" x2="57.8955" y2="14.85" gradientUnits="userSpaceOnUse">
<stop stop-color="#FFD661"/>
<stop offset="0.232292" stop-color="#FA7E1E"/>
<stop offset="0.805208" stop-color="#930DC8"/>
<stop offset="1" stop-color="#D62976"/>
</linearGradient>
</defs>
</svg>
