<svg width="21" height="15" viewBox="0 0 21 15" fill="none" xmlns="http://www.w3.org/2000/svg">
<path d="M20.9952 5.42643C21.0423 4.061 20.7437 2.7058 20.1271 1.48664C19.7087 0.986392 19.128 0.648802 18.4863 0.532698C15.832 0.291851 13.1667 0.193136 10.5018 0.236975C7.84663 0.191146 5.19091 0.286676 2.5459 0.523158C2.02297 0.618282 1.53903 0.863565 1.15314 1.22908C0.294593 2.02085 0.199199 3.37545 0.103804 4.52018C-0.0346014 6.57838 -0.0346014 8.64354 0.103804 10.7017C0.131402 11.346 0.227334 11.9856 0.389987 12.6096C0.505009 13.0914 0.737721 13.5372 1.06729 13.907C1.4558 14.2919 1.95101 14.5511 2.48866 14.6511C4.54528 14.9049 6.61754 15.0101 8.68929 14.9659C12.0281 15.0136 14.9567 14.9659 18.4195 14.6988C18.9704 14.6049 19.4795 14.3454 19.879 13.9547C20.1461 13.6875 20.3456 13.3605 20.461 13.0007C20.8021 11.9539 20.9697 10.8583 20.957 9.75733C20.9952 9.22312 20.9952 5.99879 20.9952 5.42643ZM8.34587 10.3297V4.42479L13.9932 7.39155C12.4097 8.26918 10.3205 9.26128 8.34587 10.3297Z" fill="#FDBA00"/>
</svg>
