<svg width="73" height="73" viewBox="0 0 73 73" fill="none" xmlns="http://www.w3.org/2000/svg">
<path d="M39.4769 58.7846C33.2209 58.7846 28.1538 53.0806 28.1538 46.0462C28.1538 39.0117 33.2209 33.3077 39.4769 33.3077H41.7415C48.8722 33.3077 53.6308 31.8923 59.2923 26.2308V25.5231C53.6308 24.8154 50.8 23.4 50.8 23.4V22.6923C50.8 22.6923 55.0462 19.1538 60 17.7385V17.0308C55.6802 11.2928 49.1044 7.83077 41.7415 7.83077H39.4769C36.6195 7.82786 33.7821 8.30635 31.0837 9.24615M39.4769 58.7846C32.72 58.7846 26.2399 56.1005 21.462 51.3226C16.6842 46.5448 14 40.0646 14 33.3077M39.4769 58.7846C42.5285 53.3184 48.2325 48.8769 54.7631 48.8769V49.5846C54.7631 49.5846 49.3846 53.1231 49.3846 58.7846C49.3846 64.4462 54.7631 67.9846 54.7631 67.9846V68.6923C48.2325 68.6923 42.5285 64.2508 39.4769 58.7846ZM31.0837 9.24615H30.9846C24.8277 9.24615 19.6615 5 19.6615 5H18.2462C18.2462 5 14 13.4923 14 33.3077M31.0837 9.24615C26.0922 10.9896 21.7664 14.2421 18.7056 18.5532C15.6447 22.8642 14.0002 28.0205 14 33.3077M45.1385 19.1538V13.4923" stroke="url(#paint0_linear_44_1075)" stroke-width="3"/>
<defs>
<linearGradient id="paint0_linear_44_1075" x1="21.3182" y1="59.7175" x2="64.568" y2="28.8769" gradientUnits="userSpaceOnUse">
<stop stop-color="#FFD661"/>
<stop offset="0.232292" stop-color="#FA7E1E"/>
<stop offset="0.805208" stop-color="#930DC8"/>
<stop offset="1" stop-color="#D62976"/>
</linearGradient>
</defs>
</svg>
