<svg width="17" height="18" viewBox="0 0 17 18" fill="none" xmlns="http://www.w3.org/2000/svg">
<path d="M8.50012 0.225586C3.80812 0.225586 0.00012207 4.03359 0.00012207 8.72559C0.00012207 13.4176 3.80812 17.2256 8.50012 17.2256C13.1921 17.2256 17.0001 13.4176 17.0001 8.72559C17.0001 4.03359 13.1921 0.225586 8.50012 0.225586ZM12.4441 6.00559C12.3166 7.34859 11.7641 10.6126 11.4836 12.1171C11.3646 12.7546 11.1266 12.9671 10.9056 12.9926C10.4126 13.0351 10.0386 12.6696 9.56262 12.3551C8.81462 11.8621 8.38962 11.5561 7.66712 11.0801C6.82562 10.5276 7.36962 10.2216 7.85412 9.72859C7.98162 9.60109 10.1576 7.62059 10.2001 7.44209C10.206 7.41505 10.2052 7.38698 10.1978 7.36032C10.1904 7.33366 10.1766 7.3092 10.1576 7.28909C10.1066 7.24659 10.0386 7.26359 9.97912 7.27209C9.90262 7.28909 8.71262 8.07959 6.39212 9.64359C6.05212 9.87309 5.74612 9.99209 5.47412 9.98359C5.16812 9.97509 4.59012 9.81359 4.15662 9.66909C3.62112 9.49909 3.20462 9.40559 3.23862 9.10809C3.25562 8.95509 3.46812 8.80209 3.86762 8.64059C6.34962 7.56109 7.99862 6.84709 8.82312 6.50709C11.1861 5.52109 11.6706 5.35109 11.9936 5.35109C12.0616 5.35109 12.2231 5.36809 12.3251 5.45309C12.4101 5.52109 12.4356 5.61459 12.4441 5.68259C12.4356 5.73359 12.4526 5.88659 12.4441 6.00559Z" fill="#FDBA00"/>
</svg>
