<svg width="17" height="18" viewBox="0 0 17 18" fill="none" xmlns="http://www.w3.org/2000/svg">
<path d="M11.1121 0.22583H5.89645C1.13305 0.22583 0 1.35888 0 6.11378V11.3294C0 16.0919 1.12455 17.2258 5.88795 17.2258H11.1035C15.8661 17.2258 17 16.1013 17 11.3379V6.12228C17 1.35888 15.8755 0.22583 11.1121 0.22583ZM13.7241 12.3553H12.484C12.0148 12.3553 11.8737 11.9754 11.0322 11.1339C10.2978 10.4258 9.9875 10.3374 9.80135 10.3374C9.54465 10.3374 9.4741 10.408 9.4741 10.7624V11.8776C9.4741 12.1794 9.37635 12.3562 8.5884 12.3562C7.82369 12.3048 7.08214 12.0725 6.42481 11.6783C5.76748 11.2842 5.21319 10.7395 4.8076 10.0892C3.84469 8.89073 3.1747 7.48409 2.8509 5.98118C2.8509 5.79503 2.92145 5.62673 3.2759 5.62673H4.5152C4.83395 5.62673 4.9487 5.76868 5.07365 6.09593C5.67545 7.86733 6.70225 9.40753 7.11875 9.40753C7.27855 9.40753 7.34825 9.33698 7.34825 8.93833V7.11423C7.29555 6.28208 6.85355 6.21153 6.85355 5.91063C6.85923 5.83126 6.8956 5.75723 6.95495 5.70423C7.01429 5.65123 7.09195 5.62343 7.17145 5.62673H9.11965C9.3857 5.62673 9.4741 5.75933 9.4741 6.07808V8.53968C9.4741 8.80573 9.58885 8.89413 9.66875 8.89413C9.82855 8.89413 9.9518 8.80573 10.2442 8.51333C10.8722 7.74744 11.3854 6.89415 11.7674 5.98033C11.8065 5.87056 11.8803 5.77659 11.9778 5.71274C12.0753 5.6489 12.1909 5.61869 12.3072 5.62673H13.5473C13.9187 5.62673 13.9978 5.81288 13.9188 6.07808C13.4678 7.08825 12.9099 8.04714 12.2544 8.93833C12.121 9.14233 12.0675 9.24858 12.2544 9.48743C12.3777 9.67358 12.812 10.0365 13.1045 10.3816C13.5294 10.8055 13.8822 11.2959 14.1491 11.8334C14.2554 12.1785 14.0777 12.3553 13.7241 12.3553Z" fill="#FDBA00"/>
</svg>
