<svg width="71" height="71" viewBox="0 0 71 71" fill="none" xmlns="http://www.w3.org/2000/svg">
<path d="M35.5 3.18945C25.5586 3.18945 17.4726 11.2754 17.4726 21.2168C17.4726 31.1582 25.5586 39.2441 35.5 39.2441C45.4414 39.2441 53.5273 31.1582 53.5273 21.2168C53.5273 11.2754 45.4414 3.18945 35.5 3.18945ZM34.3448 7.50589L32.7121 12.3935L39.9432 11.636L39.224 9.21516L41.2519 9.77664V12.4623L44.4196 12.6689L43.8 10.2588L45.4651 9.29448C48.8693 12.1411 51.0312 16.4211 51.0312 21.2168C51.0312 23.5282 50.5285 25.7196 49.6272 27.6889L46.0037 28.3021V32.6672C45.3124 33.3015 44.5652 33.8719 43.7712 34.3715L42.2159 31.9519L39.1856 32.7784L40.037 36.0769C38.5661 36.5232 37.0372 36.7494 35.5 36.748C31.1993 36.748 27.3132 35.0098 24.5037 32.196L27.2716 31.8144L29.1312 28.1643L23.2082 25.2031L27.4093 21.6217L23.7595 18.5917L20.0302 19.8347C20.4617 14.919 23.1715 10.668 27.1016 8.14212L27.8915 14.4595L34.3448 7.50589ZM39.7364 16.411L34.7206 19.6248L39.1035 23.5205L42.269 22.5953L41.9766 26.3937L47.7717 24.9328L45.5802 19.9658L42.0741 20.0145L45.1908 17.3362L39.7364 16.411ZM34.5261 22.011L31.8476 23.1796L33.7467 24.5918L34.5261 22.011ZM28.2356 22.4483L26.3763 24.6518L31.5276 28.2723L28.2356 22.4483ZM36.5227 23.6666L34.6236 27.2217L39.2011 30.3382L37.5939 28.0493L39.5905 25.6632L36.5227 23.6666ZM8.34386 27.4655C7.12106 27.4465 5.86954 29.0038 5.86233 32.996C5.85151 39.1188 5.25828 40.847 8.09176 47.7716C10.1695 52.8495 11.1012 56.7524 17.75 59.9062C18.5376 62.6827 18.2233 63.3356 17.689 65.7083C17.1903 67.9234 22.3238 68.3305 26.0833 66.4644C30.1174 64.264 29.7789 58.2056 29.0582 54.0971C28.2201 49.3193 25.5831 48.3263 23.2974 46.2855C20.924 42.8915 20.3717 36.743 16.5225 34.2628C15.7186 33.7448 11.6176 33.219 17.2521 47.2899C9.82335 45.45 11.1765 36.921 10.6393 30.6063C10.4793 28.7257 9.42273 27.4821 8.34386 27.4655ZM62.6561 27.4655C61.5772 27.4821 60.5207 28.7257 60.3606 30.6064C59.8234 36.921 61.1766 45.45 53.7478 47.2899C59.3825 33.2188 55.2814 33.7448 54.4775 34.2628C50.6282 36.743 50.076 42.8915 47.7025 46.2856C45.417 48.3263 42.7797 49.3193 41.9417 54.0971C41.221 58.2056 40.8825 64.264 44.9166 66.4644C48.6762 68.3304 53.8097 67.9234 53.3108 65.7083C52.7767 63.3356 52.4623 62.6827 53.25 59.9062C59.8987 56.7524 60.8305 52.8495 62.9082 47.7716C65.7417 40.847 65.1484 39.1188 65.1376 32.9961C65.1304 29.0038 63.8789 27.4465 62.6561 27.4655Z" fill="url(#paint0_linear_44_1068)"/>
<defs>
<linearGradient id="paint0_linear_44_1068" x1="15.2524" y1="58.565" x2="61.3426" y2="16.6344" gradientUnits="userSpaceOnUse">
<stop stop-color="#FFD661"/>
<stop offset="0.232292" stop-color="#FA7E1E"/>
<stop offset="0.805208" stop-color="#930DC8"/>
<stop offset="1" stop-color="#D62976"/>
</linearGradient>
</defs>
</svg>
