<svg width="10" height="18" viewBox="0 0 10 18" fill="none" xmlns="http://www.w3.org/2000/svg">
<path d="M4.89687 9.01555C2.49559 9.01555 0.499763 7.02142 0.499763 4.66179C0.499763 2.22056 2.49559 0.225586 4.89772 0.225586C7.38145 0.225586 9.29482 2.21971 9.29482 4.66179C9.29055 5.8204 8.82642 6.9299 8.00445 7.74646C7.18248 8.56301 6.06993 9.01978 4.91132 9.0164L4.89687 9.01555ZM4.89687 2.79007C3.88025 2.79007 3.10675 3.64433 3.10675 4.66264C3.10675 5.67925 3.88025 6.45276 4.89772 6.45276C5.95598 6.45276 6.68869 5.67925 6.68869 4.66264C6.68954 3.64348 5.95598 2.79007 4.89687 2.79007ZM6.64789 12.6383L9.13247 15.0396C9.62123 15.5674 9.62123 16.3409 9.13247 16.8297C8.60376 17.3575 7.7886 17.3575 7.38145 16.8297L4.89772 14.3876L2.49559 16.8297C2.25163 17.0736 1.92523 17.1952 1.55803 17.1952C1.27327 17.1952 0.947718 17.0728 0.662115 16.8297C0.173359 16.3409 0.173359 15.5674 0.662115 15.0387L3.18665 12.6374C2.27495 12.3675 1.40038 11.9851 0.583063 11.4993C-0.0280942 11.1737 -0.149645 10.3603 0.175909 9.74911C0.583064 9.1388 1.31577 8.97645 1.96773 9.3836C2.85055 9.92235 3.86477 10.2074 4.89899 10.2074C5.93322 10.2074 6.94744 9.92235 7.83025 9.3836C8.48221 8.97645 9.25487 9.1388 9.62123 9.74911C9.98843 10.3603 9.82438 11.1729 9.25402 11.4993C8.48136 11.988 7.58545 12.3544 6.64874 12.6391L6.64789 12.6383Z" fill="#FDBA00"/>
</svg>
